<?xml version="1.0" encoding="UTF-8" standalone="no"?>
<!DOCTYPE svg PUBLIC "-//W3C//DTD SVG 1.1//EN" "http://www.w3.org/Graphics/SVG/1.1/DTD/svg11.dtd">
<svg width="100%" height="100%" viewBox="0 0 24 24" version="1.1" xmlns="http://www.w3.org/2000/svg" xmlns:xlink="http://www.w3.org/1999/xlink" xml:space="preserve" xmlns:serif="http://www.serif.com/" style="fill-rule:evenodd;clip-rule:evenodd;stroke-linejoin:round;stroke-miterlimit:2;">
    <g transform="matrix(0.555556,0,0,0.555556,1.5679,1.77778)">
        <path d="M35.778,0.4L35.458,0.46L24.778,4.6L12.778,0.4L1.498,4.2C1.078,4.34 0.778,4.7 0.778,5.16L0.778,35.4C0.778,35.96 1.218,36.4 1.778,36.4L2.098,36.34L12.778,32.2L24.778,36.4L36.058,32.6C36.478,32.46 36.778,32.1 36.778,31.64L36.778,1.4C36.778,0.84 36.338,0.4 35.778,0.4ZM24.778,32.4L12.778,28.18L12.778,4.4L24.778,8.62L24.778,32.4Z" style="fill:rgb(248,248,248);fill-rule:nonzero;"/>
    </g>
</svg>
