<?xml version="1.0" encoding="UTF-8" standalone="no"?>
<!DOCTYPE svg PUBLIC "-//W3C//DTD SVG 1.1//EN" "http://www.w3.org/Graphics/SVG/1.1/DTD/svg11.dtd">
<svg width="100%" height="100%" viewBox="0 0 24 24" version="1.1" xmlns="http://www.w3.org/2000/svg" xmlns:xlink="http://www.w3.org/1999/xlink" xml:space="preserve" xmlns:serif="http://www.serif.com/" style="fill-rule:evenodd;clip-rule:evenodd;stroke-linecap:round;stroke-linejoin:round;stroke-miterlimit:1.5;">
    <g transform="matrix(1,0,0,1,0.00538103,-0.504654)">
        <g transform="matrix(1,0,0,1,1.66698,0.583602)">
            <g transform="matrix(0.574723,5.20814e-17,5.20814e-17,1,1.40462,3.55271e-15)">
                <path d="M21.103,13.205L15.542,16.264C15.542,16.264 15.329,16.334 14.771,16.334L3.303,16.334" style="fill:none;stroke:rgb(248,248,248);stroke-width:2.45px;"/>
            </g>
            <g transform="matrix(1,0,0,1,-0.681606,-0.0815851)">
                <path d="M5.967,12.713L2.017,16.451L5.977,20.189" style="fill:none;stroke:rgb(248,248,248);stroke-width:2px;"/>
            </g>
        </g>
        <g transform="matrix(-1,0,0,-1,22.3223,24.4257)">
            <g transform="matrix(0.574723,5.20814e-17,5.20814e-17,1,1.40462,3.55271e-15)">
                <path d="M21.103,13.205L15.542,16.264C15.542,16.264 15.329,16.334 14.771,16.334L3.303,16.334" style="fill:none;stroke:rgb(248,248,248);stroke-width:2.45px;"/>
            </g>
            <g transform="matrix(1,0,0,1,-0.681606,-0.0815851)">
                <path d="M5.967,12.713L2.017,16.451L5.977,20.189" style="fill:none;stroke:rgb(248,248,248);stroke-width:2px;"/>
            </g>
        </g>
    </g>
</svg>
