<?xml version="1.0" encoding="UTF-8" standalone="no"?>
<!DOCTYPE svg PUBLIC "-//W3C//DTD SVG 1.1//EN" "http://www.w3.org/Graphics/SVG/1.1/DTD/svg11.dtd">
<svg width="100%" height="100%" viewBox="0 0 24 24" version="1.1" xmlns="http://www.w3.org/2000/svg" xmlns:xlink="http://www.w3.org/1999/xlink" xml:space="preserve" xmlns:serif="http://www.serif.com/" style="fill-rule:evenodd;clip-rule:evenodd;stroke-linejoin:round;stroke-miterlimit:2;">
    <g transform="matrix(0.5,0,0,0.5,1.75611,2)">
        <path d="M20.488,0C9.448,0 0.488,8.96 0.488,20C0.488,31.04 9.448,40 20.488,40C31.528,40 40.488,31.04 40.488,20C40.488,8.96 31.528,0 20.488,0ZM20.488,29C15.508,29 11.488,24.98 11.488,20C11.488,15.02 15.508,11 20.488,11C25.468,11 29.488,15.02 29.488,20C29.488,24.98 25.468,29 20.488,29ZM20.488,18C19.388,18 18.488,18.9 18.488,20C18.488,21.1 19.388,22 20.488,22C21.588,22 22.488,21.1 22.488,20C22.488,18.9 21.588,18 20.488,18Z" style="fill:rgb(248,248,248);fill-rule:nonzero;"/>
    </g>
</svg>
