<svg viewBox="0 0 111 23" xmlns="http://www.w3.org/2000/svg" xml:space="preserve" style="fill-rule:evenodd;clip-rule:evenodd;stroke-linejoin:round;stroke-miterlimit:2"><path style="fill:none" d="M0 0h110.01v22.49H0z"/><clipPath id="a"><path d="M0 0h110.01v22.49H0z"/></clipPath><g clip-path="url(#a)"><path d="M21.85 18.13v-.03l.02-.01c.03 0 .04.03.04.06l-.03.03c-.01 0-.02 0-.03-.02v-.03Zm-.18-.03c0-.02.02-.03.04-.02v.02a.05.05 0 0 1-.03.02c-.02 0-.02 0-.01-.02Zm-1.24 1.3.03.01v.02l-.02.01c-.02 0-.03-.01-.02-.03Zm-1.55 1.2-.02.01a.02.02 0 0 1-.03-.02l.03-.02s.02 0 .02.02Zm-.17.1.02-.01.02.01v.05h-.01c0 .02-.02.01-.03 0v-.05Zm-3.69 1.7v.06c-.01.02-.02.02-.02 0l.01-.06h.01ZM1.11 10.9l-.03.03h-.01c0-.03.01-.04.03-.04.01 0 .02 0 0 .01Zm.3-1.07v-.02c0-.02 0-.02.02-.02v.03c0 .01-.01.02-.02.01Zm.13-.24a.17.17 0 0 1-.08.01.02.02 0 0 1-.02-.02l.01-.03a.11.11 0 0 1 .09 0c.03.02.02.03 0 .04Zm.33-1.87-.04-.01-.04-.04.05.01c.02.02.04.03.03.04Zm-.16.27h.04v.04H1.7a.02.02 0 0 1 0-.04Zm.5-1.3h.02l.01.02c-.01.02-.02.03-.03.02l-.01-.02V6.7Zm.9-1.49v.03h-.03V5.2h.03Zm1.77-2.3a.1.1 0 0 1-.02-.03v-.02c.03.01.03.03.03.05Zm-.68.37h.01l.02.01v.03h-.04l.01-.04ZM15.7.14c.01.01 0 .03-.01.03h-.03l.01-.04.03.01Zm1.8.77h.03v.04h-.02l-.02-.01.01-.03Zm.65.54h.03v.02c.01.02 0 .02-.01.02s-.03 0-.03-.02v-.02Zm.91.66h.04v.03h-.04V2.1Zm.2-.37c0 .01-.02.02-.05.02l-.04-.02c0-.01.02-.02.05-.02l.04.02Zm.07.15a.1.1 0 0 0-.02-.02l-.03-.01c-.02 0-.02-.01 0-.01.05 0 .08.02.1.06 0 .03 0 .03-.02.01l-.02-.03Zm.18.36s-.03-.01-.04-.04c-.02-.03-.02-.06-.01-.07l.05.05v.06Zm.37.41-.01.04h-.04l.01-.03c.02-.02.03-.02.04 0Zm3.27 4.13-.03-.01c-.01-.02-.02-.03-.01-.04 0 0 .02 0 .03.02l.01.03Zm-.23.67-.02-.03.02-.02.03.01v.02l-.02.02Zm.15.3-.03-.01c-.01-.02-.02-.03 0-.04 0 0 .02 0 .03.02v.04Zm.18-.31h-.04V7.4l.03.01c.02.01.02.03 0 .04Zm-.5-1.34c0 .05-.02.1-.05.16h-.04l-.17-.37c-.02-.04-.01-.06.03-.04.06.02.1.06.16.12.05.02.07.06.07.13ZM9.4 22.28l.02.01-.01.04-.03-.01c0-.02 0-.03.02-.04Zm-2.23-.9v-.04c.02-.02.04-.02.05-.01.02.01.02.03 0 .05-.01.01-.03.02-.05 0Zm-1.44-1.31-.01.02h-.03l-.02-.02v-.02c0-.01.02-.02.03-.01l.03.03Zm-3.94-6.3a11 11 0 0 1 0-5.03l.1-.43a7.17 7.17 0 0 1 .53-1.49l.15-.35.3-.58a4.24 4.24 0 0 1 .4-.67l.23-.35c.06-.08.16-.17.2-.27a12.65 12.65 0 0 1 1.78-1.94c.51-.45 1.1-.85 1.7-1.2.03-.03.08-.03.11-.06A10.18 10.18 0 0 1 11.65.06l.04-.02a.2.2 0 0 1 .06-.04c.02 0 .03 0 .03.02l.02.02h.03l.22-.01a10.8 10.8 0 0 1 9.44 4.73c.35.51.66 1.05.95 1.6.18.36.34.74.43 1.15.02.07.09.18.12.28a10.44 10.44 0 0 1 .5 2.25 11.66 11.66 0 0 1-.06 3.16v.04a.08.08 0 0 0-.05.07 9.17 9.17 0 0 1-.48 1.88l-.11.27a12.9 12.9 0 0 1-.17.47l.02.04.01.03V16c-.02.02-.03.01-.03 0v-.03h-.04c-.1.16-.2.33-.25.51a.96.96 0 0 1-.1.23 18.38 18.38 0 0 1-1.75 2.37c-.09.1-.21.22-.33.3-.29.2-.55.5-.75.66-.32.27-.68.52-1.03.74a14.46 14.46 0 0 1-2.3 1.1 10.27 10.27 0 0 1-5.2.45 9.9 9.9 0 0 1-4.4-1.77 14.45 14.45 0 0 1-2.2-2.02c-.41-.48-.8-1-1.17-1.6a.62.62 0 0 0-.13-.12l-.02-.03h.01l.04.02h.02v-.03c-.08-.13-.17-.26-.24-.4l-.37-.76a8.84 8.84 0 0 1-.42-1.1l-.2-.76Z" style="fill:red"/><path d="M17.39 8.28c-.01 0-.03-.02-.04-.05v-.06l.03.05c.02.03.02.06 0 .06Zm-.26-.2h-.02c-.05-.13-.07-.24-.05-.24.03-.02.09.08.13.2v.03l-.06.02Zm-.29-.5c-.01 0-.04 0-.05-.02-.02-.02-.02-.04 0-.05.01-.02.04-.01.05.01.02.02.02.05 0 .06Zm-.3-.32v.02h-.01l-.05-.08c0-.02 0-.03.01-.02.03.02.05.05.05.08Zm-.42-.37h.02l.1.1v.02c-.01 0-.07-.03-.13-.08h-.01v-.01l.02-.03Zm-.1.02h-.05c-.01-.01-.02-.03-.01-.04h.03l.02.04Zm5.19 5.07c-.02 0-.03 0-.03.02V12c0 .02-.02.03-.03.02-.03-.03-.06-.05-.1-.04l-.26.02c-.03 0-.03 0 0-.03.08-.07.2-.1.31-.1.26.02.46.13.6.33v.01h-.01c-.04-.04-.14-.13-.21-.1h-.04a.44.44 0 0 0-.16-.1.1.1 0 0 1-.05-.02l-.02-.02Zm-2.8 4.5c-.1-.15-.22-.25-.35-.36-.02-.02-.01-.02 0-.02.22.01.6.41.5.63 0 .02 0 .02-.02 0-.05-.08-.08-.17-.14-.25Zm1.35-5.21c0-.13.15-.24.34-.25.2 0 .35.1.35.23v.01l-.69.01Zm-2.18-3.54.01.02c.02 0 .04-.01.05-.03h.05c.04.07.1.13.13.2a12.2 12.2 0 0 0 .22.38c0 .01 0 .03-.02.03-.11.07-.15.2-.18.3-.01.03-.03.04-.05.03-.06-.03-.08-.07-.07-.12V8.5c-.04-.08-.06-.16-.12-.23-.09-.1-.16-.21-.2-.34a.25.25 0 0 0-.13-.13.1.1 0 0 1-.03-.04.12.12 0 0 0-.07-.05.05.05 0 0 1-.03-.03c-.06-.08-.1-.16-.13-.24a.07.07 0 0 0-.04-.04l-.1-.05a.05.05 0 0 1-.03-.05c0-.06-.03-.1-.09-.1a8.03 8.03 0 0 0-.55-.48c-.03-.03-.02-.04.02-.03.32.07.62.2.88.41l.4.35c.09.08.11.18.08.28Zm.61 1.02c.27.67.27 1.33.02 1.98-.11.3-.47.88-.88.68a.05.05 0 0 1-.04-.04c0-.14 0-.3.04-.44l.02-.03c.06-.04.12-.07.17-.12.07-.09.07-.17 0-.26a.09.09 0 0 1-.02-.08l.15-.43a438.4 438.4 0 0 1 .54-1.26Zm-3.13 2.96a2.19 2.19 0 0 1-1.25-1.48 2.66 2.66 0 0 1-.07-1.03c0-.04.03-.06.07-.05.14.03.28.06.4.12.32.15.6.33.83.52.2.16.41.35.63.57.03.02.03.06.01.1a.29.29 0 0 0-.03.25c.03.12.12.18.23.1.05-.03.06-.08.1-.13h.01c.24.21.46.43.67.67v.05c-.07.07-.14.14-.22.19-.4.25-.94.3-1.38.12Z" style="fill:#fff"/><path d="M18.73 9.6a3.35 3.35 0 0 1-.62 2.15v.01c.3.1.59.15.87.17.04 0 .07-.02.08-.05.05-.16.1-.32.17-.48.06-.18.12-.3.18-.39.23-.29.52-.4.85-.33.43.1.64.41.73.81 0 .03.03.04.05.04h.07c.19.02.37.09.55.19.36.2.6.5.7.91.04.12.04.23.02.34-.05.22-.26.37-.48.3-.26-.06-.35-.32-.57-.43-.15-.08-.32-.04-.47 0a.04.04 0 0 0-.02.06c.28.42.38.87.31 1.37-.04.32-.3.68-.68.52-.16-.07-.18-.17-.18-.34l-.01-.42c-.06-.21-.12-.4-.32-.53a.69.69 0 0 0-.3-.14c-.24-.04-.37.13-.43.33-.08.28-.16.43-.47.46-.17 0-.32-.16-.37-.3a1 1 0 0 1-.04-.44 1.66 1.66 0 0 1 .15-.5l-.02-.02-.69-.16a1.54 1.54 0 0 1-.36-.12.09.09 0 0 0-.1 0 3.48 3.48 0 0 1-3.06.46c-.3-.1-.58-.24-.86-.4a.06.06 0 0 0-.08.03v.01l-.21.8-.08.42c0 .01 0 .03.02.03l1.05.15c.59.09 1.15.24 1.51.73.24.31.38.68.49 1.06a.05.05 0 0 0 .06.03l.47-.15c.38-.1.76-.13 1.14-.08.62.1 1.06.4 1.2 1.05.04.2 0 .38-.25.37-.14 0-.27.02-.41.01a26838.53 26838.53 0 0 0-3.22.03c-.05-.34-.12-.67-.2-1-.04-.21-.12-.46-.3-.6-.16-.1-.34-.2-.54-.24-.19-.05-.39-.1-.58-.12a281.4 281.4 0 0 0-2.34-.26 37.32 37.32 0 0 1 .26 2.25l-.01.03-.91.02c-1.09 0-2.17.02-3.26.04-.1 0-.17 0-.2-.04A.26.26 0 0 1 6.9 17c.03-.51.27-.87.74-1.07.08-.04.18-.05.28-.08l.21-.03c.3-.03.58 0 .87.06l1.02.24c.02 0 .04 0 .05-.03v-.06a98.76 98.76 0 0 0-.1-.82l-.32-.05a20.1 20.1 0 0 0-2.73-.31 4.03 4.03 0 0 1-1.1-.19c-.27-.1-.6-.23-.96-.4a2 2 0 0 0-.7-.17c-.22 0-.41.04-.6.14-.1.06-.23.15-.33.24-.13.12-.22.2-.27.21a.64.64 0 0 1-.5.03.6.6 0 0 1-.22-.53c.04-.4.33-.66.67-.83.47-.24.97-.33 1.52-.26.27.05.53.13.76.24l.7.34a3.13 3.13 0 0 0 1 .25c.04 0 .07.03.1.05.02 0 .03 0 .03-.02a1.35 1.35 0 0 1 .02-.7c.03-.13.1-.24.16-.36 0-.02 0-.03-.02-.03a.2.2 0 0 0-.15.03c-.2.14-.39.25-.61.14a.5.5 0 0 1-.19-.33c0-.36.16-.61.5-.76l.22-.07c.16-.03.38.07.54.12h.03a.1.1 0 0 0 .09-.06c.1-.37.21-.74.34-1.1.1-.29.24-.56.45-.77.37-.37.85-.47 1.36-.4.15.03.34.08.57.18l.95.38.05-.01a8.54 8.54 0 0 1 .43-1.87c.16-.45.33-.89.46-1.32l.37-1.3a.51.51 0 0 1 .12-.21c.13-.14.24.1.28.18l.4.92a.05.05 0 0 0 .07.03 3.1 3.1 0 0 1 1.9-.49 2.57 2.57 0 0 1 .71.1l.64.21.03-.01.31-1.11c.03-.11.2-.2.28-.07.05.07.1.15.11.25.16.68.32 1.3.48 1.87.02.07.05.14.1.2.12.2.26.4.36.63.2.44.32.9.35 1.39Zm-1.15-1.87c.03-.1 0-.2-.09-.28a7.94 7.94 0 0 0-.4-.35c-.25-.2-.55-.34-.87-.41-.04-.01-.05 0-.02.03l.04.05a8.03 8.03 0 0 1 .51.43c.06 0 .1.04.1.1 0 .02 0 .04.02.05l.1.05c.02 0 .03.02.04.04.03.08.07.16.13.24 0 .02.01.02.03.03.03 0 .05.02.07.05 0 .02.02.03.03.04.06.03.1.07.13.13.05.13.11.24.2.34.06.07.08.15.12.23v.04c-.01.05.01.09.07.12.02.01.04 0 .05-.02.03-.12.07-.24.18-.3.02-.01.02-.03.02-.04v-.02a12.2 12.2 0 0 1-.22-.37l-.13-.18-.03-.02s-.02 0-.02.02a.07.07 0 0 1-.05.02c-.01 0-.02 0-.01-.02ZM16 6.91s0-.02-.02-.03c-.01-.01-.03-.02-.03 0l.01.03h.04Zm.1-.02-.01.03v.01l.14.08V7l-.1-.1-.02-.01Zm.43.37a.08.08 0 0 0-.05-.08c-.01 0-.02 0 0 .02l.04.08v-.02Zm.3.32c.02-.01.02-.04 0-.06-.01-.02-.04-.03-.05-.01-.02 0-.02.03 0 .05.01.02.04.03.05.02Zm.3.5.05-.01v-.03c-.04-.12-.1-.22-.12-.2h-.01c-.02 0 0 .11.05.23l.02.02Zm.25.2v-.06c-.02-.03-.03-.06-.04-.05v.06c.01.03.03.06.04.05Zm.8.47a438.4 438.4 0 0 0-.7 1.7c0 .02.01.05.03.07.07.09.07.17 0 .26-.05.06-.11.08-.16.12a.05.05 0 0 0-.02.03c-.05.15-.06.3-.04.44 0 .02 0 .04.03.05.4.19.77-.4.88-.7.25-.64.25-1.3-.02-1.97Zm-3.13 2.96c.44.17.99.13 1.38-.12.08-.05.15-.12.22-.2v-.04c-.21-.24-.43-.46-.67-.67h-.02c-.03.05-.04.1-.09.14-.11.07-.2 0-.23-.1a.29.29 0 0 1 .03-.27.08.08 0 0 0-.01-.1c-.22-.21-.43-.4-.63-.56-.24-.2-.51-.37-.82-.52-.13-.06-.27-.09-.41-.12-.04 0-.06 0-.07.05-.04.36-.02.7.07 1.03.18.65.62 1.24 1.25 1.48Zm-6.6.4a.37.37 0 0 0-.05.13c0 .02.01.03.03.04h.17a.9.9 0 0 1 .59.3c.1.12.15.25.17.42.02.2-.09.4-.28.46-.09.03-.2-.03-.26-.1l-.26-.22-.02-.01a.04.04 0 0 0-.04.03v.06c.04.21.04.42 0 .62l-.08.16c0 .02 0 .03.02.04.08 0 .17 0 .25.02l1.2.26c.03 0 .05 0 .05-.04 0-.2.02-.4.04-.6a5.9 5.9 0 0 1 .68-2.36.05.05 0 0 0-.02-.07l-.66-.3a1.72 1.72 0 0 0-.23-.06c-.35-.11-.64-.03-.86.24-.21.27-.36.59-.44.97Zm11.3-.84h.69v-.01c0-.13-.16-.24-.34-.24h-.01c-.19 0-.34.12-.34.24v.01Zm1.45.71s.02 0 .02.02a.1.1 0 0 0 .05.03c.06.01.11.04.16.08h.04c.07-.02.17.07.2.11h.02v-.01a.77.77 0 0 0-.6-.33.43.43 0 0 0-.32.1c-.02.02-.02.03.01.03l.26-.03c.04 0 .07.02.1.04h.03V12c0-.02.01-.03.03-.02ZM7.73 13.84c.03 0 .07-.12.1-.27.02-.15 0-.27-.03-.28-.03 0-.07.12-.1.27-.02.14 0 .27.03.28Zm10.68 2.64.13.25c.01.02.02.02.03 0 .1-.22-.29-.62-.5-.63-.02 0-.03 0-.01.02.13.11.24.2.35.36Z" style="fill:#010101;fill-rule:nonzero"/><path d="m77.93 17.29-.17-11.26 3.25.02c2.9.02 3.27.03 3.56.12 1.48.43 2.22 1.44 2.24 3.01 0 .47-.02.67-.12 1a2.6 2.6 0 0 1-1.44 1.66c-.33.17-.35.18-.22.23.73.28 3.72 5.22 3.72 5.22l-3.67-.03-.73-1.35c-1-1.87-1.22-2.23-1.55-2.54a1.62 1.62 0 0 0-1.22-.44h-.35l.02 2.16.01 2.17-3.33.03Zm5.11-8.66c-.19-.1-.33-.1-1.05-.1h-.83l.03 1.05.03 1.06.7.02c.85.02 1.1-.04 1.37-.3.48-.5.34-1.43-.25-1.73Zm-17.9-3.56a2 2 0 0 1 1.24.08c.14.06.37.21.5.34.76.7.75 1.8-.02 2.5-.34.31-.72.45-1.24.44a1.73 1.73 0 0 1-1.68-2.18c.14-.5.66-1 1.2-1.18ZM64.06 17.3V9.24h1.59l1.58.03v8h-1.58l-1.59.02ZM89.8 5.09c.81-.29 1.8.13 2.2.93.17.35.18 1.1.02 1.4a1.84 1.84 0 0 1-2.28.91 1.83 1.83 0 0 1-1.15-1.46c-.08-.7.46-1.5 1.2-1.78ZM88.77 9.3c.01-.05.36-.06 1.58-.05l1.56.02.01 4.01.02 4.01-1.59-.01-1.59-.02-.01-3.94.01-4.02Zm-28.8.6V5.21l1.59.01 1.58.02v12.02l-1.36.02c-1.5.02-1.36.05-1.45-.35l-.09-.37-.06-.21-.35.32c-.2.18-.5.41-.7.51-.9.43-2.2.41-3.13-.06a3.8 3.8 0 0 1-1.88-2.5 6.76 6.76 0 0 1-.01-2.63 3.64 3.64 0 0 1 1.75-2.45 3.72 3.72 0 0 1 3.78.14l.33.22Zm-.82 1.74c-.3-.09-.53-.1-.75-.05-.7.16-1.07.57-1.2 1.33-.14.82.16 1.6.73 1.91.27.15.35.17.74.17.48 0 .7-.08.99-.35.29-.27.31-.37.31-1.41v-.97l-.26-.27c-.2-.2-.34-.3-.56-.36Zm41.38 5.65V5.21l1.59.01 1.58.02.02 2.42.01 2.4.3-.21c.37-.28.9-.54 1.32-.65.4-.1 1.41-.12 1.82-.02.95.22 1.54.83 1.86 1.88.12.4.13.49.15 3.32l.02 2.91H106l-.02-2.5c-.02-2.3-.02-2.5-.12-2.7-.18-.36-.37-.45-.92-.45-.53 0-.7.07-1.02.46l-.16.2-.03 2.47-.03 2.5h-1.58l-1.59.02ZM32.07 5.82c1.1-.12 2.81.12 3.88.54l.36.15.02 1.5v1.5l-.55-.26a7.78 7.78 0 0 0-2.86-.86c-.49 0-.76.12-.9.43-.12.24-.12.38 0 .62.13.27.45.43 1.23.6 2.11.46 3.07 1.1 3.52 2.36.13.36.15.47.15 1.25 0 .8-.02.89-.16 1.3-.2.56-.37.85-.77 1.27-.54.58-1.24.95-2.16 1.16-.54.13-2.02.13-2.73 0a9.4 9.4 0 0 1-1.8-.49l-.46-.17v-3.29l.41.28a8.29 8.29 0 0 0 2.77 1.16c.92.16 1.5-.15 1.5-.8 0-.34-.15-.6-.42-.72-.12-.05-.65-.2-1.18-.33-1.25-.31-1.85-.58-2.38-1.08-.44-.4-.76-1-.9-1.63-.1-.5-.1-1.4 0-1.84.35-1.45 1.64-2.45 3.43-2.65Zm6.66 3.3a28.03 28.03 0 0 1 2.24-2.2c.1 0 .1.05.1 1.16v1.16h2.87v2.26h-2.87l.03 2.99.2.18c.48.44 1.53.38 2.37-.15.14-.08.27-.15.3-.15 0 0 .03.55.03 1.23v1.24l-.3.14c-1.23.58-3.26.6-4.34.06a3.44 3.44 0 0 1-1.15-1.14c-.28-.57-.3-.74-.33-2.6l-.03-1.77-.62-.02c-.55-.01-.62-.03-.62-.11 0-.05.95-1.08 2.12-2.29Zm33.05.01a5.1 5.1 0 0 1 1.4 0c1.17.12 2.2.56 2.9 1.24.47.47.73.89.97 1.58a3 3 0 0 1 .18 1.31c0 .7-.02.86-.13 1.22-.55 1.77-1.89 2.77-3.97 2.99-2.54.25-4.6-.96-5.17-3.05a5.8 5.8 0 0 1 .02-2.34c.48-1.64 1.9-2.75 3.8-2.95Zm1.53 2.67c-.21-.13-.34-.16-.7-.17-.4-.03-.5 0-.73.1-.5.26-.78.7-.84 1.36-.09 1.1.48 1.83 1.44 1.83.53 0 .75-.07 1.05-.33.33-.3.48-.7.48-1.28 0-.23-.02-.52-.06-.64-.09-.34-.35-.7-.64-.87Zm22.72-2.67a9.9 9.9 0 0 1 3.31.3l.39.12.01 1.3v1.31l-.44-.2a4.1 4.1 0 0 0-1.83-.37c-.55 0-.64 0-.92.14-.62.29-.93.8-.93 1.55 0 .22.03.49.05.6.14.47.59.9 1.07 1.05a4.88 4.88 0 0 0 3.02-.5c.03 0 .05.54.05 1.2v1.22l-.2.1c-.68.35-1.64.52-2.83.53-.98 0-1.5-.1-2.14-.38-1.49-.69-2.22-1.92-2.22-3.73 0-1.3.36-2.26 1.15-3.06a4.3 4.3 0 0 1 2.46-1.18Zm-51.34.18c.03-.06.3-.07 1.6-.06l1.55.02.03 2.48c.03 2.34.03 2.49.14 2.7.14.28.34.41.66.47.54.1 1.04-.13 1.38-.62l.2-.3V9.25h1.58l1.58.03v8H52.1c-.73.01-1.35 0-1.37-.02-.02-.03-.08-.3-.13-.6a7.6 7.6 0 0 0-.11-.56l-.4.37c-.7.67-1.47.96-2.55.96-1.5 0-2.3-.58-2.71-1.96-.12-.39-.13-.5-.15-3.24l.01-2.9Z" style="fill:#fff"/></g></svg>



