<?xml version="1.0" encoding="UTF-8" standalone="no"?><!DOCTYPE svg PUBLIC "-//W3C//DTD SVG 1.1//EN" "http://www.w3.org/Graphics/SVG/1.1/DTD/svg11.dtd"><svg width="100%" height="100%" viewBox="0 0 512 115" version="1.1" xmlns="http://www.w3.org/2000/svg" xmlns:xlink="http://www.w3.org/1999/xlink" xml:space="preserve" xmlns:serif="http://www.serif.com/" style="fill-rule:evenodd;clip-rule:evenodd;stroke-linejoin:round;stroke-miterlimit:2;"><g><g><path d="M159.865,17.85c-1.882,-7.03 -7.406,-12.554 -14.436,-14.436c-12.728,-3.414 -63.79,-3.414 -63.79,-3.414c0,0 -51.061,0 -63.79,3.414c-7.029,1.882 -12.554,7.406 -14.435,14.436c-3.414,12.728 -3.414,39.301 -3.414,39.301c-0,-0 -0,26.572 3.414,39.301c1.881,7.029 7.406,12.553 14.435,14.435c12.729,3.414 63.79,3.414 63.79,3.414c0,-0 51.062,-0 63.79,-3.414c7.03,-1.882 12.554,-7.406 14.436,-14.435c3.414,-12.729 3.414,-39.301 3.414,-39.301c-0,-0 -0.014,-26.573 -3.414,-39.301Z" style="fill:#f00;fill-rule:nonzero;"/><path d="M65.296,81.642l42.419,-24.489l-42.419,-24.489l-0,48.978Z" style="fill:#fff;fill-rule:nonzero;"/></g><g><g id="youtube-paths"><path d="M197.754,74.316l-18.333,-66.209l15.994,-0l6.425,30.013c1.64,7.393 2.836,13.696 3.615,18.911l0.471,0c0.538,-3.736 1.747,-10 3.616,-18.803l6.653,-30.121l15.994,-0l-18.562,66.209l0,31.761l-15.886,0l-0,-31.761l0.013,0Z" style="fill:#fff;fill-rule:nonzero;"/><path d="M237.001,103.978c-3.226,-2.178 -5.524,-5.565 -6.896,-10.161c-1.357,-4.597 -2.042,-10.699 -2.042,-18.334l-0,-10.39c-0,-7.701 0.779,-13.897 2.339,-18.561c1.559,-4.664 3.991,-8.078 7.298,-10.215c3.306,-2.137 7.647,-3.213 13.024,-3.213c5.296,0 9.529,1.089 12.728,3.267c3.186,2.177 5.524,5.591 7.003,10.215c1.478,4.637 2.218,10.806 2.218,18.507l-0,10.39c-0,7.635 -0.726,13.764 -2.164,18.387c-1.438,4.637 -3.777,8.025 -7.003,10.162c-3.226,2.137 -7.607,3.212 -13.132,3.212c-5.699,0.013 -10.147,-1.089 -13.373,-3.266Zm18.091,-11.21c0.887,-2.338 1.344,-6.142 1.344,-11.438l0,-22.298c0,-5.135 -0.443,-8.898 -1.344,-11.264c-0.9,-2.379 -2.473,-3.561 -4.731,-3.561c-2.177,-0 -3.723,1.182 -4.61,3.561c-0.901,2.379 -1.344,6.129 -1.344,11.264l-0,22.298c-0,5.296 0.43,9.113 1.29,11.438c0.86,2.339 2.406,3.508 4.664,3.508c2.258,0 3.831,-1.169 4.731,-3.508Z" style="fill:#fff;fill-rule:nonzero;"/><path d="M324.702,106.091l-12.607,-0l-1.398,-8.764l-0.35,0c-3.427,6.613 -8.562,9.919 -15.416,9.919c-4.745,0 -8.253,-1.559 -10.511,-4.663c-2.258,-3.119 -3.387,-7.984 -3.387,-14.597l-0,-53.481l16.116,-0l-0,52.54c-0,3.199 0.349,5.47 1.048,6.828c0.699,1.357 1.868,2.043 3.508,2.043c1.398,-0 2.742,-0.43 4.032,-1.29c1.291,-0.861 2.231,-1.95 2.863,-3.266l-0,-56.869l16.102,0l-0,71.6Z" style="fill:#fff;fill-rule:nonzero;"/><path d="M368.48,21.075l-15.995,-0l0,85.013l-15.766,-0l-0,-85.013l-15.995,-0l0,-12.957l47.756,-0l-0,12.957Z" style="fill:#fff;fill-rule:nonzero;"/><path d="M407.349,106.091l-12.607,-0l-1.398,-8.764l-0.349,0c-3.427,6.613 -8.562,9.919 -15.417,9.919c-4.745,0 -8.252,-1.559 -10.51,-4.663c-2.259,-3.119 -3.388,-7.984 -3.388,-14.597l0,-53.481l16.116,-0l0,52.54c0,3.199 0.349,5.47 1.048,6.828c0.699,1.357 1.868,2.043 3.509,2.043c1.397,-0 2.741,-0.43 4.032,-1.29c1.29,-0.861 2.231,-1.95 2.862,-3.266l0,-56.869l16.102,0l0,71.6Z" style="fill:#fff;fill-rule:nonzero;"/><path d="M460.683,45.942c-0.981,-4.516 -2.554,-7.783 -4.731,-9.812c-2.177,-2.03 -5.175,-3.038 -8.992,-3.038c-2.957,0 -5.726,0.834 -8.293,2.514c-2.567,1.68 -4.556,3.871 -5.954,6.599l-0.121,0l0,-37.715l-15.524,0l-0,101.586l13.306,-0l1.64,-6.774l0.35,-0c1.249,2.419 3.118,4.314 5.604,5.726c2.487,1.398 5.256,2.097 8.293,2.097c5.444,-0 9.463,-2.514 12.03,-7.528c2.567,-5.027 3.857,-12.862 3.857,-23.534l0,-11.331c0,-7.997 -0.497,-14.274 -1.465,-18.79Zm-14.771,29.206c-0,5.215 -0.215,9.302 -0.646,12.259c-0.429,2.957 -1.142,5.067 -2.163,6.303c-1.008,1.25 -2.38,1.869 -4.087,1.869c-1.33,-0 -2.553,-0.31 -3.682,-0.941c-1.129,-0.619 -2.043,-1.559 -2.742,-2.796l0,-40.631c0.537,-1.949 1.479,-3.535 2.809,-4.785c1.317,-1.25 2.769,-1.869 4.314,-1.869c1.641,0 2.904,0.645 3.791,1.922c0.9,1.291 1.519,3.441 1.868,6.479c0.35,3.037 0.524,7.352 0.524,12.957l0,9.233l0.014,0Z" style="fill:#fff;fill-rule:nonzero;"/><path d="M485.01,79.275c0,4.596 0.135,8.037 0.404,10.336c0.269,2.298 0.833,3.965 1.693,5.027c0.86,1.048 2.178,1.572 3.965,1.572c2.406,0 4.073,-0.941 4.96,-2.809c0.901,-1.868 1.385,-4.986 1.465,-9.341l13.898,0.819c0.081,0.619 0.121,1.479 0.121,2.568c-0,6.612 -1.815,11.559 -5.43,14.825c-3.616,3.266 -8.737,4.906 -15.35,4.906c-7.943,-0 -13.508,-2.487 -16.693,-7.473c-3.199,-4.987 -4.785,-12.688 -4.785,-23.119l0,-12.5c0,-10.739 1.653,-18.588 4.96,-23.534c3.306,-4.947 8.965,-7.42 16.989,-7.42c5.524,0 9.771,1.008 12.728,3.038c2.957,2.03 5.04,5.175 6.25,9.462c1.21,4.288 1.815,10.202 1.815,17.755l-0,12.259l-26.99,-0l0,3.629Zm2.044,-33.737c-0.821,1.008 -1.358,2.662 -1.64,4.96c-0.269,2.298 -0.404,5.779 -0.404,10.457l0,5.135l11.788,-0l0,-5.135c0,-4.597 -0.161,-8.078 -0.47,-10.457c-0.309,-2.379 -0.874,-4.046 -1.694,-5.027c-0.82,-0.968 -2.083,-1.465 -3.79,-1.465c-1.72,0.013 -2.984,0.524 -3.79,1.532Z" style="fill:#fff;fill-rule:nonzero;"/></g></g></g></svg>