<svg xml:space="preserve" fill="#ebebeb" style="fill-rule:evenodd;clip-rule:evenodd;stroke-linejoin:round;stroke-miterlimit:2" viewBox="0 0 358 390" xmlns="http://www.w3.org/2000/svg"><path d="m295.9 43.7 2 1.8.4 234.4-3.2 3.8c-11.3 13.7-11.9 30.6-1.5 42.2 4.9 5.4 5.7 9.3 2.4 11.1-1.3.7-35.7 1-109.7.8l-107.8-.3-5.1-2.3c-6.3-2.9-13.4-10-17.1-17.2l-2.8-5.5v-242l2.7-5.7c5.4-11.5 16.4-20.1 28-21.8 2.9-.4 51.3-.8 107.4-.9 96-.1 102.3 0 104.3 1.6M81.2 53.9c-6 2.1-12.2 7.5-15.5 13.6l-2.2 4-.3 105.3L63 282l4.1-2.9c6.4-4.7 14.2-6.7 26.7-7.1.9 0 1.2-22.7 1.2-110V52h-4.2c-2.4.1-6.7.9-9.6 1.9m-1.7 229.7c-17.1 6.1-21.3 26.6-7.9 38.4 7.3 6.3.9 6 110.3 6h100l-1.9-4.3c-4.8-11.2-4.7-22.6.6-34.4 1.9-4.4 2.2-5.8 1.2-6.5-.7-.4-45.6-.7-99.8-.7-82.9 0-99.1.3-102.5 1.5m25.3-230.9c-.2.5-.2 50.2 0 110.6l.4 109.7 91.3-.2c50.2-.2 91.5-.5 91.7-.8s.2-49.9 0-110.3L287.8 52h-91.3c-50.3 0-91.5.3-91.7.7" style="fill:#ebebeb"/></svg>