<?xml version="1.0" encoding="UTF-8" standalone="no"?>
<!DOCTYPE svg PUBLIC "-//W3C//DTD SVG 1.1//EN" "http://www.w3.org/Graphics/SVG/1.1/DTD/svg11.dtd">
<svg width="100%" height="100%" viewBox="0 0 336 305" version="1.1" xmlns="http://www.w3.org/2000/svg" xmlns:xlink="http://www.w3.org/1999/xlink" xml:space="preserve" xmlns:serif="http://www.serif.com/" style="fill-rule:evenodd;clip-rule:evenodd;stroke-linecap:round;stroke-linejoin:round;stroke-miterlimit:1.5;">
    <g transform="matrix(1,0,0,1,-688,-348)">
        <g>
            <path d="M809.6,374.4C818.6,378.6 824,387.9 824,399.2L824,404L905,404L905,398.2C905,389.7 907.3,383.9 912.6,379C920.7,371.5 928.4,370.1 937.5,374.4C946.3,378.4 950.7,385.6 951.7,397.2L952.3,404L961.5,404C972.4,404 978.1,405.7 983.9,410.6C989,415 992.5,420.9 993.9,427.8C994.7,431.4 995,461.1 995,521.3C995,617.8 995.1,616.6 989.2,625.3C987.7,627.6 984.5,630.9 982.2,632.7C973.5,639.3 978.5,639.1 861.9,638.8L756.5,638.5L750.8,635.7C743.9,632.3 738.7,626.6 736,619.2C734,613.9 734,612.1 734.2,519.2L734.5,424.5L737.6,419C741,412.9 748.1,406.9 754,405.1C756,404.5 762.1,404 767.4,404L777,404L777,398.9C777,389.8 778.9,385 784.6,379.3C792.2,371.7 800.3,370.1 809.6,374.4ZM749.9,477.6C749.3,478.3 749.1,504.8 749.2,545.6C749.5,610.8 749.6,612.6 751.5,616C756,623.5 747.4,623 863.8,623C975,623 970.8,623.2 975.2,618.4C978.8,614.4 979,609 978.8,542.5L978.5,477.5L864.7,477C780.4,476.6 750.6,476.8 749.9,477.6ZM815.2,499C817.2,499.6 820,501.4 821.4,503.1C823.9,506 824,506.7 824,519.1C824,539.8 822.4,541.3 801.3,540.8L787.8,540.5L784.4,536.8L781,533L781,519.6C781,507.4 781.2,506 783.2,503.5C784.4,502 786.7,500.2 788.4,499.4C792.1,497.8 809.8,497.5 815.2,499ZM795.4,513.4C795.1,514.1 795,517.4 795.2,520.6L795.5,526.5L809.5,526.5L809.8,520.1C810,515.6 809.7,513.4 808.8,512.9C806.6,511.4 796,511.8 795.4,513.4ZM882.8,563.4L886.5,566.8L886.8,580.2C887,592.2 886.9,593.8 885,596.8C882,601.7 877.8,603 865.3,603C857,603 853.7,602.6 851.1,601.2C844.2,597.8 843.3,594.6 843.8,575.6C844,567 844.1,566.7 847.4,563.4L850.8,560L879,560L882.8,563.4ZM858.4,575.3C858.1,576.1 858,579.2 858.2,582.1L858.5,587.5L872.5,587.5L872.5,574.5L865.7,574.2C860.6,574 858.8,574.3 858.4,575.3ZM881.3,500.4C886,503.6 887,506.8 887,519C887,530.8 885.9,535 882,538.5C880.1,540.2 878.1,540.5 866.5,540.8C845.4,541.3 843.5,539.6 843.5,519.9C843.5,505.6 844.4,503.2 851.1,499.7C856,497.1 877.1,497.6 881.3,500.4ZM859.2,512.8C858.3,513.4 858,515.6 858.2,520.1L858.5,526.5L872.1,527.1L871.5,512.5L866,512.2C863,512.1 859.9,512.4 859.2,512.8ZM818,561.5C823,564.1 824,567.4 824,581.2C824,594.5 823.3,597 818.7,600.4C816.3,602.2 814.1,602.6 804.7,602.8C792.2,603.2 787.5,602.2 783.9,598.4C781.7,596 781.5,595 781.2,582.8C780.8,568.7 781.6,565.3 785.8,562C788,560.2 789.9,560 801.7,560C811.7,560 815.8,560.4 818,561.5ZM795.4,575.3C795.1,576.1 795,579.2 795.2,582.1L795.5,587.5L809.5,587.5L809.5,574.5L802.7,574.2C797.6,574 795.8,574.3 795.4,575.3ZM940.8,499.5C947.3,502.1 948.5,505.4 948.5,520C948.4,533.8 947.8,535.9 942.7,539C940,540.7 937.6,541 927,541C913.1,541 910.8,540.3 907.3,535.1C905.2,532 905,530.5 905,519.6C905,500.7 907.6,498.1 926.2,498C933.6,498 938.2,498.5 940.8,499.5ZM920.7,512.6C920.3,513 920,516.4 920,520.2L920,527.1L926.8,526.8L933.5,526.5L933.5,512.5L927.5,512.2C924.1,512 921.1,512.2 920.7,512.6ZM795.9,389.9C793.6,391.7 793.5,392.5 793.2,406.3C792.8,422.9 793.8,426.3 798.9,427.5C806.4,429.1 808.3,424.6 807.8,406.5C807.5,392.9 807.5,392.8 804.7,390.4C801.3,387.5 799,387.4 795.9,389.9ZM758.3,420.1C756.5,420.6 753.8,422.7 752.3,424.7C749.5,428.3 749.5,428.4 749.5,444.4L749.5,460.5L978.5,460.5L978.8,448C979,441.1 978.8,433.6 978.5,431.3C977.2,422.4 970.1,418.2 958.5,419.5L952.3,420.1L950.6,426C947.2,437.2 938.8,444 928.3,444C916.8,444 909,436.1 904.4,420.2C904.1,419.3 895.8,419 867.2,419C846.9,419 828.9,419.3 827.3,419.6C824.6,420.1 824,420.9 822.5,426.1C819.1,437.3 810.8,444 800.2,444C790.1,444 782,437 778,424.7L776.3,419.5L768.9,419.3C764.8,419.2 760.1,419.6 758.3,420.1ZM923.9,389.9C921.6,391.7 921.5,392.5 921.2,406.3C920.9,418 921.2,421.4 922.4,423.8C925.3,429.5 931.7,429.3 934.5,423.4C935.8,420.5 936.1,417.5 935.8,406.5C935.5,394 935.4,393 933.1,390.6C930.2,387.5 927.1,387.3 923.9,389.9Z" style="fill:white;stroke:white;stroke-width:1px;"/>
        </g>
    </g>
</svg>
