<?xml version="1.0" encoding="UTF-8" standalone="no"?>
<!DOCTYPE svg PUBLIC "-//W3C//DTD SVG 1.1//EN" "http://www.w3.org/Graphics/SVG/1.1/DTD/svg11.dtd">
<svg width="100%" height="100%" viewBox="0 0 303 286" version="1.1" xmlns="http://www.w3.org/2000/svg" xmlns:xlink="http://www.w3.org/1999/xlink" xml:space="preserve" xmlns:serif="http://www.serif.com/" style="fill-rule:evenodd;clip-rule:evenodd;stroke-linejoin:round;stroke-miterlimit:2;">
    <g transform="matrix(1,0,0,1,-372,-144)">
        <g transform="matrix(0.1,0,0,-0.1,0,1024)">
            <g>
                <path d="M4905,8740C4856,8725 4797,8667 4765,8604C4742,8556 4736,8528 4732,8457C4724,8306 4766,8219 4867,8173C4912,8152 4933,8148 4986,8152C5074,8157 5123,8193 5169,8282C5270,8480 5172,8731 4989,8745C4959,8748 4921,8745 4905,8740ZM5002,8589C5029,8575 5060,8504 5060,8455C5060,8325 4980,8258 4909,8329C4883,8355 4880,8365 4880,8420C4880,8486 4898,8541 4932,8577C4956,8603 4972,8605 5002,8589Z" style="fill-rule:nonzero;"/>
                <path d="M4335,8661C4244,8619 4195,8528 4196,8405C4198,8194 4343,8050 4511,8090C4621,8117 4688,8229 4677,8369C4667,8501 4605,8606 4508,8654C4446,8685 4391,8687 4335,8661ZM4470,8492C4494,8469 4513,8437 4520,8410C4563,8251 4440,8162 4370,8300C4340,8359 4335,8413 4355,8465C4383,8540 4415,8547 4470,8492Z" style="fill-rule:nonzero;"/>
                <path d="M5345,8391C5252,8349 5171,8219 5162,8100C5152,7951 5224,7860 5352,7860C5477,7860 5588,7979 5606,8131C5613,8195 5591,8297 5559,8341C5514,8405 5422,8426 5345,8391ZM5450,8224C5464,8188 5462,8125 5446,8086C5421,8026 5353,7991 5322,8022C5307,8037 5306,8134 5321,8163C5327,8175 5346,8200 5363,8218C5401,8258 5437,8260 5450,8224Z" style="fill-rule:nonzero;"/>
                <path d="M3950,8258C3880,8222 3855,8169 3855,8055C3855,7948 3874,7898 3942,7824C3994,7767 4049,7741 4114,7740C4279,7739 4356,7905 4273,8082C4201,8236 4058,8314 3950,8258ZM4081,8097C4149,8052 4187,7915 4140,7890C4082,7859 4000,7942 3998,8033C3997,8122 4018,8139 4081,8097Z" style="fill-rule:nonzero;"/>
                <path d="M4660,8065C4555,8035 4483,7974 4415,7858C4395,7824 4354,7770 4325,7738C4246,7653 4215,7583 4216,7490C4216,7403 4236,7356 4297,7299C4359,7239 4395,7225 4485,7225C4557,7225 4574,7229 4650,7264C4757,7314 4811,7319 4911,7291C5010,7263 5096,7263 5157,7292C5288,7354 5351,7504 5304,7643C5286,7695 5226,7768 5175,7800C5157,7811 5118,7852 5089,7891C5029,7973 4973,8021 4905,8050C4839,8078 4732,8085 4660,8065ZM4856,7906C4889,7891 4920,7866 4945,7834C4965,7807 5024,7746 5074,7698L5165,7611L5165,7550C5165,7492 5163,7487 5128,7454C5082,7412 5038,7410 4923,7441C4812,7472 4730,7465 4625,7416C4489,7353 4412,7358 4376,7434C4344,7502 4361,7552 4455,7658C4485,7693 4519,7738 4529,7758C4608,7911 4728,7966 4856,7906Z" style="fill-rule:nonzero;"/>
                <path d="M5535,7523C5446,7477 5390,7382 5382,7264C5368,7052 5502,6905 5669,6950C5722,6964 5792,7026 5820,7086C5880,7210 5854,7396 5763,7482C5705,7538 5599,7557 5535,7523ZM5673,7359C5718,7297 5712,7176 5660,7120C5627,7084 5601,7082 5573,7113C5539,7150 5530,7176 5530,7235C5530,7359 5617,7434 5673,7359Z" style="fill-rule:nonzero;"/>
            </g>
            <path d="M6074,7411C6015,7384 5962,7327 5926,7251C5862,7114 5895,6945 5997,6880C6082,6826 6168,6832 6256,6899C6291,6925 6315,6955 6340,7004C6373,7069 6375,7079 6375,7169C6375,7248 6371,7272 6353,7305C6327,7354 6275,7405 6237,7419C6194,7436 6120,7432 6074,7411ZM6205,7260C6242,7219 6233,7102 6189,7046C6178,7032 6155,7013 6138,7004C6036,6951 6005,7141 6099,7240C6142,7285 6176,7292 6205,7260Z" style="fill-rule:nonzero;"/>
            <path d="M5085,7206C5014,7174 4968,7085 4967,6976C4966,6885 4990,6815 5041,6757C5134,6651 5266,6640 5347,6733C5390,6783 5403,6829 5398,6919C5386,7123 5227,7269 5085,7206ZM5208,7036C5263,6974 5273,6855 5227,6826C5204,6812 5162,6829 5137,6862C5109,6900 5102,6995 5124,7038C5145,7079 5170,7079 5208,7036Z" style="fill-rule:nonzero;"/>
            <path d="M6447,6988C6392,6973 6288,6873 6254,6802C6173,6630 6247,6470 6407,6470C6574,6470 6713,6671 6670,6850C6654,6915 6603,6975 6552,6990C6509,7002 6498,7001 6447,6988ZM6524,6824C6535,6796 6530,6730 6516,6695C6498,6653 6446,6619 6405,6622C6376,6625 6375,6626 6375,6680C6375,6743 6401,6789 6454,6821C6492,6844 6516,6845 6524,6824Z" style="fill-rule:nonzero;"/>
            <path d="M5677,6849C5609,6833 5540,6790 5472,6721C5435,6684 5382,6639 5353,6621C5242,6552 5190,6467 5190,6355C5190,6272 5211,6220 5265,6165C5341,6089 5427,6069 5560,6095C5679,6118 5724,6112 5807,6062C5962,5968 6104,5974 6202,6077C6267,6146 6295,6257 6271,6347C6264,6371 6239,6418 6215,6452C6190,6487 6151,6553 6126,6600C6070,6708 6017,6768 5943,6807C5853,6855 5762,6869 5677,6849ZM5825,6699C5892,6682 5945,6630 5994,6531C6018,6484 6052,6427 6070,6405C6116,6347 6130,6316 6130,6270C6130,6197 6078,6140 6011,6140C5993,6140 5935,6163 5872,6196C5745,6262 5688,6271 5566,6246C5523,6237 5474,6230 5456,6230C5383,6230 5322,6304 5336,6376C5345,6424 5378,6460 5461,6516C5499,6541 5547,6582 5568,6607C5642,6696 5722,6725 5825,6699Z" style="fill-rule:nonzero;"/>
        </g>
    </g>
</svg>
