<?xml version="1.0" encoding="UTF-8" standalone="no"?>
<!DOCTYPE svg PUBLIC "-//W3C//DTD SVG 1.1//EN" "http://www.w3.org/Graphics/SVG/1.1/DTD/svg11.dtd">
<svg width="100%" height="100%" viewBox="0 0 256 276" version="1.1" xmlns="http://www.w3.org/2000/svg" xmlns:xlink="http://www.w3.org/1999/xlink" xml:space="preserve" xmlns:serif="http://www.serif.com/" style="fill-rule:evenodd;clip-rule:evenodd;stroke-linejoin:round;stroke-miterlimit:2;">
    <g transform="matrix(1,0,0,1,-213,-647)">
        <g transform="matrix(0.1,0,0,-0.1,0,1024)">
            <path d="M3290,3525C2881,3437 2584,3104 2535,2678L2529,2620L2454,2620C2388,2620 2376,2617 2355,2595C2325,2566 2323,2540 2349,2509C2366,2488 2378,2485 2454,2481C2540,2478 2540,2478 2540,2451C2540,2403 2580,2267 2620,2183C2693,2027 2814,1880 2945,1790C3018,1740 3149,1682 3246,1658C3373,1627 3570,1627 3690,1659C4038,1752 4294,2013 4382,2367C4414,2497 4412,2689 4377,2823C4288,3158 4036,3414 3699,3510C3603,3538 3385,3546 3290,3525ZM3650,3374C3736,3355 3881,3283 3955,3223C4081,3121 4194,2948 4235,2795C4260,2703 4265,2531 4247,2434C4174,2051 3850,1780 3465,1780C3115,1780 2820,2001 2710,2345C2676,2453 2671,2655 2699,2775C2790,3157 3132,3418 3510,3393C3551,3390 3614,3382 3650,3374Z" style="fill-rule:nonzero;"/>
            <path d="M3378,3100C3210,3070 3079,2977 3002,2832C2959,2752 2940,2671 2940,2575C2940,2429 2985,2317 3086,2210C3187,2103 3312,2050 3465,2050C3923,2049 4159,2590 3850,2933C3736,3061 3541,3130 3378,3100ZM3606,2939C3683,2910 3771,2826 3812,2742C3843,2680 3845,2668 3845,2575C3845,2487 3842,2468 3818,2418C3781,2338 3711,2266 3631,2227C3570,2197 3558,2195 3465,2195C3377,2195 3358,2198 3308,2222C3213,2266 3123,2366 3096,2457C3089,2478 3092,2478 3196,2482C3293,2485 3303,2487 3321,2509C3347,2540 3345,2566 3315,2595C3292,2618 3284,2620 3184,2620L3078,2620L3085,2658C3118,2841 3300,2979 3488,2964C3523,2962 3576,2950 3606,2939Z" style="fill-rule:nonzero;"/>
        </g>
    </g>
</svg>
