<svg xml:space="preserve" fill="#ebebeb" style="fill-rule:evenodd;clip-rule:evenodd;stroke-linejoin:round;stroke-miterlimit:2" viewBox="0 0 414 361" xmlns="http://www.w3.org/2000/svg"><path d="M148.7 23.1c10.2 1.8 14.2 5.1 26.6 22.5l10.8 15.1 75.2-.5c74.3-.5 75.3-.5 79.9 1.6 11.3 5 17.1 14 18.4 28.6l.7 7.6h9c11.5 0 16.6 2.2 20.8 8.8 3.8 6 3.8 11.1-.1 28.3-1.7 7.4-5.3 24-8 36.9-2.6 12.9-7.3 34.7-10.4 48.5-3 13.7-7.6 34.4-10.1 45.9-6.2 28.7-10.5 37.5-21.3 42.8l-4.7 2.3-117.5.5c-64.6.3-128.7.3-142.5 0l-25-.5-4.8-2.8c-5.4-3.2-9.6-9-12.4-17.1-1.7-4.8-1.8-12.7-1.8-128.3V40.2l4-5.8c8.5-12.3 8.3-12.2 62.9-12.3 28.1-.1 46.2.3 50.3 1m-67.2 8.8c-27.6.6-30.3.8-33.4 2.6-1.9 1.1-4.3 3.3-5.5 4.8l-2.1 2.9v106.3c0 58.5.3 106.1.6 105.9.4-.2.9-1.6 1.1-3.1.3-1.6 3-14.1 6.1-27.8 3.1-13.8 7.9-36 10.7-49.5 11.7-56.1 14.6-64.7 23.7-71 7.5-5.1 4.6-5 141.1-5h127.4l-.7-6.3c-1.4-13.2-4.1-18.1-11.7-21.2-4-1.6-9.9-1.7-80.9-1l-76.7.8-7.3-10.8c-19.4-28.4-18.2-27.7-44.2-28-10-.1-31.7.1-48.2.4m7.8 78.2c-5.9 2.9-7.6 7-12.8 31-2.4 11.2-6.4 28.9-8.9 39.4C58.7 218 43 288.2 43 290.4c0 3.5 4.1 8.9 8.5 11.1 3.8 1.9 6.1 2 48.5 2.1 89.8.2 233.2-1.5 236.2-2.7 1.5-.6 4.1-2.6 5.7-4.4 5.2-6 5.7-7.7 20.6-77.5 3.2-14.6 9.1-41.8 13.2-60.5s7.7-36.6 8-39.7c.5-5.1.3-5.9-2-8.2l-2.6-2.6H236.3c-142.6 0-142.8 0-147 2.1" style="fill:#ebebeb"/></svg>