<?xml version="1.0" encoding="UTF-8" standalone="no"?>
<!DOCTYPE svg PUBLIC "-//W3C//DTD SVG 1.1//EN" "http://www.w3.org/Graphics/SVG/1.1/DTD/svg11.dtd">
<svg width="100%" height="100%" viewBox="0 0 375 271" version="1.1" xmlns="http://www.w3.org/2000/svg" xmlns:xlink="http://www.w3.org/1999/xlink" xml:space="preserve" xmlns:serif="http://www.serif.com/" style="fill-rule:evenodd;clip-rule:evenodd;stroke-linejoin:round;stroke-miterlimit:2;">
    <g transform="matrix(1,0,0,1,-106,-175)">
        <g transform="matrix(0.1,0,0,-0.1,0,1024)">
            <g>
                <path d="M2010,8205C1828,8155 1676,8016 1587,7819C1466,7553 1350,7031 1333,6675C1323,6472 1363,6333 1462,6225C1528,6152 1615,6110 1713,6103C1962,6084 2167,6245 2380,6627C2432,6722 2452,6748 2480,6762C2512,6778 2556,6780 2950,6780C3358,6780 3387,6779 3416,6761C3437,6748 3466,6706 3509,6629C3605,6455 3656,6383 3755,6284C3891,6147 4022,6090 4170,6103C4341,6118 4464,6220 4522,6395C4543,6458 4545,6483 4545,6645C4544,6842 4524,7008 4469,7260C4373,7702 4256,7964 4097,8090C3922,8230 3677,8260 3490,8165L3441,8140L2436,8140L2350,8177C2274,8209 2254,8214 2165,8217C2097,8219 2047,8215 2010,8205ZM2312,8037L2385,8000L3489,8000L3561,8038C3623,8070 3643,8075 3714,8078C3898,8086 4051,7988 4149,7800C4253,7602 4359,7185 4401,6813C4414,6697 4408,6494 4391,6438C4372,6377 4318,6308 4266,6275C4222,6248 4208,6245 4136,6245C4022,6245 3963,6274 3855,6383C3761,6478 3717,6540 3631,6700C3560,6832 3543,6852 3475,6888L3425,6915L2967,6918C2447,6921 2437,6920 2358,6851C2326,6822 2296,6778 2254,6699C2075,6355 1869,6196 1673,6251C1605,6269 1530,6346 1500,6425C1453,6552 1465,6791 1535,7139C1635,7635 1754,7904 1921,8011C2004,8064 2063,8080 2157,8077C2229,8074 2249,8069 2312,8037Z" style="fill:white;fill-rule:nonzero;"/>
                <path d="M3694,7796C3624,7765 3607,7676 3659,7618C3685,7589 3694,7585 3740,7585C3786,7585 3795,7589 3821,7618C3874,7677 3856,7766 3784,7796C3743,7813 3734,7813 3694,7796Z" style="fill:white;fill-rule:nonzero;"/>
                <path d="M2086,7748C2074,7731 2070,7699 2070,7613L2070,7500L1957,7500C1859,7500 1841,7497 1827,7482C1801,7453 1805,7405 1836,7381C1859,7363 1877,7360 1966,7360L2070,7360L2070,7252C2070,7123 2080,7100 2139,7100C2201,7100 2210,7118 2210,7247L2210,7358L2321,7362C2425,7365 2433,7367 2452,7390C2466,7407 2470,7423 2466,7445C2456,7493 2438,7500 2318,7500L2210,7500L2210,7618C2210,7721 2207,7739 2192,7753C2164,7778 2105,7775 2086,7748Z" style="fill:white;fill-rule:nonzero;"/>
                <path d="M3418,7525C3386,7507 3360,7462 3360,7425C3360,7304 3529,7274 3576,7387C3615,7479 3505,7574 3418,7525Z" style="fill:white;fill-rule:nonzero;"/>
                <path d="M3961,7528C3900,7495 3879,7413 3917,7361C3928,7347 3955,7329 3976,7321C4012,7309 4020,7309 4053,7325C4155,7373 4135,7523 4025,7536C4002,7539 3975,7535 3961,7528Z" style="fill:white;fill-rule:nonzero;"/>
                <path d="M3682,7257C3608,7216 3610,7096 3686,7062C3734,7039 3779,7047 3816,7084C3844,7112 3850,7126 3850,7160C3850,7194 3844,7208 3816,7236C3789,7263 3774,7270 3744,7270C3722,7269 3695,7264 3682,7257Z" style="fill:white;fill-rule:nonzero;"/>
            </g>
        </g>
    </g>
</svg>
