<svg xml:space="preserve" fill="#ebebeb" style="fill-rule:evenodd;clip-rule:evenodd;stroke-linejoin:round;stroke-miterlimit:2" viewBox="0 0 282 217" xmlns="http://www.w3.org/2000/svg"><path d="M4923 5855c-443-80-773-443-822-907-6-53-8-122-5-155l6-58-56-57c-81-84-88-114-84-385 3-208 4-220 28-268 66-134 205-209 411-222 73-5 92-3 134 16 63 28 83 46 106 96 17 36 19 72 19 407 0 235-4 377-11 395-15 40-57 82-104 104-50 23-167 25-245 4-30-8-56-15-57-15-10 0 0 144 13 208 54 266 229 500 459 615 112 56 211 79 355 84 154 6 231-7 356-57 279-112 483-372 533-680 13-76 14-170 4-170-5 0-33 7-63 15-78 21-185 19-235-4-47-22-89-64-104-104-7-18-11-160-11-394 0-349 1-369 21-409 51-107 171-138 358-94 150 36 238 99 293 209 22 43 23 59 26 272 4 270-4 305-88 383l-50 47v108c0 337-140 625-402 827-213 165-516 238-785 189m-435-1171 22-15v-349c0-402 8-373-102-371-70 1-126 14-188 46-99 50-110 82-110 325 0 220 6 242 72 290 54 40 97 58 173 75 81 18 106 18 133-1m1410-11c68-21 149-70 176-106 19-26 21-44 24-230 4-228-4-268-63-313-76-57-240-95-302-69l-33 14v700l23 16c26 19 89 15 175-12" style="fill:#fff;fill-rule:nonzero" transform="matrix(.1 0 0 -.1 -372 594)"/></svg>