<?xml version="1.0" encoding="UTF-8" standalone="no"?>
<!DOCTYPE svg PUBLIC "-//W3C//DTD SVG 1.1//EN" "http://www.w3.org/Graphics/SVG/1.1/DTD/svg11.dtd">
<svg width="100%" height="100%" viewBox="0 0 381 340" version="1.1" xmlns="http://www.w3.org/2000/svg" xmlns:xlink="http://www.w3.org/1999/xlink" xml:space="preserve" xmlns:serif="http://www.serif.com/" style="fill-rule:evenodd;clip-rule:evenodd;stroke-linejoin:round;stroke-miterlimit:2;">
    <g transform="matrix(1,0,0,1,-111,-537)">
        <g transform="matrix(0.1,0,0,-0.1,0,1024)">
            <path d="M2213,4445C2060,4403 1911,4314 1823,4212C1765,4144 1697,4036 1667,3964C1637,3894 1600,3723 1600,3657C1600,3538 1661,3309 1722,3200C1762,3128 2990,1894 3030,1885C3044,1882 3066,1883 3077,1887C3102,1897 4049,2828 4230,3022C4373,3175 4416,3246 4467,3415C4490,3495 4494,3522 4494,3655C4495,3831 4482,3896 4415,4035C4342,4187 4215,4307 4037,4390C3924,4443 3847,4460 3715,4460C3547,4460 3452,4430 3294,4325C3249,4295 3178,4238 3136,4199L3060,4128L3008,4181C2884,4306 2724,4402 2576,4440C2481,4464 2294,4467 2213,4445ZM2580,4260C2704,4219 2778,4166 2921,4017L3018,3917L3064,3922C3108,3927 3117,3934 3218,4037C3329,4151 3380,4191 3478,4240C3624,4312 3834,4306 3993,4223C4097,4169 4233,4031 4282,3930C4320,3853 4350,3732 4350,3660C4350,3597 4321,3472 4289,3397C4226,3247 4196,3214 3612,2635C3307,2333 3055,2086 3053,2087C3050,2088 2792,2343 2480,2654C1857,3274 1859,3272 1800,3447C1718,3693 1770,3910 1954,4096C2095,4237 2232,4294 2415,4286C2480,4283 2537,4274 2580,4260Z" style="fill:white;fill-rule:nonzero;"/>
        </g>
    </g>
</svg>
