<?xml version="1.0" encoding="UTF-8" standalone="no"?>
<!DOCTYPE svg PUBLIC "-//W3C//DTD SVG 1.1//EN" "http://www.w3.org/Graphics/SVG/1.1/DTD/svg11.dtd">
<svg width="100%" height="100%" viewBox="0 0 1024 1024" version="1.1" xmlns="http://www.w3.org/2000/svg" xmlns:xlink="http://www.w3.org/1999/xlink" xml:space="preserve" xmlns:serif="http://www.serif.com/" style="fill-rule:evenodd;clip-rule:evenodd;stroke-linejoin:round;stroke-miterlimit:2;">
    <g transform="matrix(0.143971,0,0,-0.143971,-225.169,1235.51)">
        <g>
            <path d="M2334,7161C2311,7151 2282,7127 2269,7109L2245,7075L2242,4920C2241,3735 2242,2751 2245,2733C2253,2690 2295,2641 2345,2619C2383,2601 2439,2600 3479,2600L4573,2600L4634,2566C4939,2398 5263,2397 5585,2564L5645,2595L6761,2600L7876,2605L7919,2633C7946,2651 7969,2677 7981,2703C7999,2744 8000,2805 8000,4895L8000,7046L7978,7090C7961,7122 7942,7141 7910,7157L7865,7181L6800,7177C5629,7173 5707,7177 5514,7110C5381,7064 5278,7003 5155,6897L5115,6862L5056,6915C4944,7016 4784,7097 4600,7148L4505,7175L3440,7177C2415,7180 2373,7179 2334,7161ZM4490,6940C4671,6911 4869,6807 4983,6681L5020,6640L5020,4935C5020,3997 5018,3230 5015,3230C5012,3230 4990,3246 4964,3265C4865,3341 4737,3404 4605,3442L4525,3465L3493,3468L2460,3471L2460,6950L3443,6950C4064,6950 4449,6946 4490,6940ZM7780,6950L7780,3471L6748,3467L5715,3464L5630,3442C5522,3413 5339,3324 5278,3271C5253,3248 5229,3230 5226,3230C5223,3230 5220,3996 5220,4933C5220,6566 5221,6636 5238,6665C5263,6705 5380,6800 5460,6844C5543,6889 5594,6907 5700,6930C5779,6947 5853,6949 6783,6949L7780,6950ZM4558,3222C4713,3175 4872,3075 4942,2982C4995,2913 5010,2863 5010,2758L5010,2669L4973,2676C4926,2684 4867,2707 4720,2773L4605,2825L3533,2828L2460,2830L2460,3251L3473,3248L4485,3245L4558,3222ZM7780,3250L7780,2830L5658,2830L5569,2800C5520,2784 5457,2758 5428,2744C5385,2722 5247,2670 5233,2670C5231,2670 5230,2713 5230,2766C5230,2848 5234,2869 5257,2918C5308,3028 5453,3142 5621,3204C5735,3247 5770,3248 6798,3249L7780,3250Z" style="fill:white;fill-rule:nonzero;"/>
            <path d="M5604,6531C5587,6520 5568,6497 5561,6479C5553,6456 5550,6097 5550,5181C5550,3929 5550,3915 5570,3882C5609,3818 5573,3820 6507,3820C7330,3820 7356,3821 7387,3840C7454,3881 7450,3787 7450,5185C7450,6256 7448,6456 7436,6485C7407,6553 7455,6550 6498,6550C5667,6550 5634,6549 5604,6531ZM6152,6248L6070,6165L5988,6248L5905,6330L6235,6330L6152,6248ZM7080,6327C7080,6326 7045,6290 7002,6247L6925,6170L6765,6330L6923,6330C7009,6330 7080,6329 7080,6327ZM6632,6163C6703,6093 6760,6031 6760,6025C6760,6012 6508,5760 6495,5760C6489,5760 6426,5819 6355,5890L6225,6020L6360,6155C6434,6229 6497,6290 6500,6290C6502,6290 6562,6233 6632,6163ZM7240,6030C7240,5942 7237,5871 7233,5871C7228,5872 7191,5908 7150,5951L7076,6030L7155,6110C7199,6154 7236,6190 7237,6190C7239,6190 7240,6118 7240,6030ZM5910,6030C5909,6027 5875,5989 5835,5945L5760,5865L5760,6184L5835,6110C5876,6069 5910,6033 5910,6030ZM6207,5470C6135,5396 6074,5334 6072,5331C6071,5328 6006,5389 5930,5465L5790,5605L6065,5880L6340,5605L6207,5470ZM7200,5605L6924,5329L6650,5605L6925,5880L7200,5605ZM6758,5178C6756,5174 6697,5112 6625,5040L6496,4909L6361,5045L6225,5180L6495,5450L6627,5318C6700,5245 6759,5182 6758,5178ZM7240,5173L7240,5005L7069,5176L7152,5258C7198,5303 7236,5340 7238,5340C7239,5340 7240,5265 7240,5173ZM5845,5250L5915,5180L5760,5025L5760,5173C5760,5254 5763,5320 5768,5320C5772,5320 5807,5288 5845,5250ZM6210,4895L6345,4760L6210,4625C6136,4551 6072,4490 6067,4490C6056,4490 5800,4745 5800,4756C5800,4765 6061,5030 6070,5030C6073,5030 6136,4969 6210,4895ZM7195,4760L6925,4490L6793,4622C6720,4695 6660,4758 6660,4761C6660,4765 6720,4827 6793,4899L6925,5029L7060,4895L7195,4760ZM6638,4477L6771,4344L6633,4207L6495,4071L6360,4205L6225,4340L6360,4475C6434,4549 6497,4610 6500,4610C6503,4610 6565,4550 6638,4477ZM7240,4333L7240,4165L7160,4245C7116,4289 7080,4329 7080,4335C7080,4343 7229,4500 7237,4500C7239,4500 7240,4425 7240,4333ZM5837,4263L5760,4185L5760,4495L5837,4417L5915,4340L5837,4263ZM6148,4117C6187,4077 6220,4041 6220,4037C6220,4033 6153,4030 6070,4030C5988,4030 5920,4033 5920,4037C5920,4046 6062,4190 6070,4190C6073,4190 6108,4157 6148,4117ZM6998,4117C7037,4077 7070,4041 7070,4037C7070,4033 7003,4030 6920,4030C6838,4030 6770,4033 6770,4037C6770,4046 6912,4190 6920,4190C6923,4190 6958,4157 6998,4117Z" style="fill:white;fill-rule:nonzero;"/>
        </g>
    </g>
</svg>
