<?xml version="1.0" encoding="UTF-8" standalone="no"?>
<!DOCTYPE svg PUBLIC "-//W3C//DTD SVG 1.1//EN" "http://www.w3.org/Graphics/SVG/1.1/DTD/svg11.dtd">
<svg width="100%" height="100%" viewBox="0 0 704 643" version="1.1" xmlns="http://www.w3.org/2000/svg" xmlns:xlink="http://www.w3.org/1999/xlink" xml:space="preserve" xmlns:serif="http://www.serif.com/" style="fill-rule:evenodd;clip-rule:evenodd;stroke-linejoin:round;stroke-miterlimit:2;">
    <g transform="matrix(1,0,0,1,-159,-204)">
        <g transform="matrix(0.1,0,0,-0.1,0,1024)">
            <path d="M5064,7926C5047,7918 4815,7701 4550,7444C3893,6806 3406,6336 2895,5845C2318,5291 2310,5282 2303,5234C2299,5201 2302,5189 2325,5162C2339,5145 2369,5125 2390,5119C2464,5097 2483,5108 2653,5271L2810,5422L2810,3988C2810,2620 2811,2553 2828,2520C2840,2498 2863,2477 2891,2463L2935,2441L5120,2441C7220,2440 7307,2441 7345,2459C7367,2469 7394,2487 7405,2500C7425,2522 7425,2538 7428,3967C7429,4810 7434,5410 7439,5408C7444,5406 7510,5347 7586,5276C7662,5205 7742,5139 7763,5130C7813,5107 7855,5118 7893,5162C7915,5188 7920,5204 7920,5246L7920,5298L7718,5492C7607,5598 7415,5781 7293,5899L7070,6112L7070,7386L7043,7412C7027,7427 7002,7444 6987,7449C6969,7456 6835,7460 6619,7460C6148,7460 6177,7478 6170,7183L6165,6978L5686,7446C5423,7704 5198,7920 5186,7927C5158,7943 5103,7943 5064,7926ZM5672,7114C5971,6823 6258,6544 6310,6494C6362,6445 6565,6251 6760,6064C6955,5876 7132,5708 7153,5691L7190,5658L7190,2700L5940,2700L5940,3686C5940,4795 5946,4711 5864,4750C5824,4770 5806,4770 5099,4768C4400,4765 4374,4764 4346,4745C4288,4706 4290,4747 4290,3680L4290,2700L3050,2700L3050,5648L3302,5891C3441,6025 3701,6277 3880,6450C4059,6624 4340,6896 4505,7055C4670,7215 4875,7414 4960,7497C5045,7581 5118,7648 5122,7647C5126,7646 5373,7406 5672,7114ZM6830,7220L6830,6335L6723,6441C6577,6585 6441,6713 6424,6723C6413,6730 6410,6776 6410,6975L6410,7220L6830,7220ZM5700,4520L5700,2695L5120,2698L4540,2700L4540,4520L5700,4520Z" style="fill:white;fill-rule:nonzero;"/>
        </g>
    </g>
</svg>
