<?xml version="1.0" encoding="UTF-8" standalone="no"?>
<!DOCTYPE svg PUBLIC "-//W3C//DTD SVG 1.1//EN" "http://www.w3.org/Graphics/SVG/1.1/DTD/svg11.dtd">
<svg width="100%" height="100%" viewBox="0 0 365 305" version="1.1" xmlns="http://www.w3.org/2000/svg" xmlns:xlink="http://www.w3.org/1999/xlink" xml:space="preserve" xmlns:serif="http://www.serif.com/" style="fill-rule:evenodd;clip-rule:evenodd;stroke-linecap:round;stroke-linejoin:round;stroke-miterlimit:1.5;">
    <g transform="matrix(1,0,0,1,0,-348)">
        <g>
            <path d="M247.2,383C252.7,384.6 258.9,389.8 261.8,395.4C263.9,399.4 264.5,402.3 264.9,410.4L265.5,420.5L282,421.1C295.5,421.5 299.5,422 303.8,423.7C311.5,426.8 318,431.3 324.3,437.8C334.4,448.4 339.2,461.5 339.3,478.5C339.5,505.4 326.2,525.1 301.8,534.2C294.3,536.9 292.1,537.3 279.5,537.6L265.5,538L264.9,552.8C263.9,578.3 259.2,590.8 245.5,604.6C238.9,611.3 235.8,613.5 228,617.4C212.9,624.8 210.7,625 152.9,625C95.7,625 93.3,624.8 78.5,617.5C58.6,607.7 45.8,590.4 42.1,568.5C41.2,563.4 40.9,539.8 41.2,480.5C41.5,403.7 41.6,399.3 43.4,396C46.9,389.4 52.1,385 59,382.9C63,381.7 242.9,381.8 247.2,383ZM265,521.2L278.8,520.8C291.7,520.5 292.9,520.3 299.2,517.3C314.9,509.9 323,496.8 323,479.1C323,463 316.9,450.6 305.2,443.1C298.3,438.7 290.5,437 276.8,437L265,437L265,521.2ZM63.5,398.9C62.4,399.4 60.7,400.7 59.7,401.7C58.1,403.6 58,408.5 58.2,487.7L58.5,571.6L62.4,579.6C69.5,594 82.7,604.1 98.7,607.5C108.7,609.6 197.4,609.6 207.5,607.5C226.7,603.4 241.8,589.5 246.5,571.5C247.8,566.4 248,554.2 248,485C248,395.5 248.4,401 241.2,399C236.7,397.8 66.5,397.7 63.5,398.9ZM131,441.2C136.5,442.9 144.1,446.9 148.7,450.6C151,452.5 153.1,454 153.3,454C153.6,454 155.8,452.4 158.2,450.3C160.5,448.3 165.4,445.3 169,443.6C174.9,440.8 176.4,440.5 185.5,440.5C194.6,440.5 196.1,440.8 202.1,443.6C224.3,454.1 233.3,481.5 222,504C218.9,510.2 160.8,568.6 156.3,570.1C149.7,572.2 147.8,570.8 116.1,539.1C91.6,514.7 85.9,508.5 83.7,503.9C75.4,486.2 78.2,466.7 91.1,452.6C101.4,441.3 116.7,437 131,441.2ZM115.5,456.9C104.2,459.8 97.1,469.3 96.2,482.5C95.3,496.1 97.2,498.4 144.3,544L153,552.5L179,526.5C207.7,497.9 210.1,494.6 210.2,484.7C210.4,468.9 199.7,457 185.4,457C177.1,457.1 172.3,459.6 163.6,468.5C153.9,478.5 152.7,478.5 143.4,468.9C133.5,458.7 124.1,454.7 115.5,456.9Z" style="fill:white;stroke:white;stroke-width:1px;"/>
        </g>
    </g>
</svg>
