<?xml version="1.0" encoding="UTF-8" standalone="no"?>
<!DOCTYPE svg PUBLIC "-//W3C//DTD SVG 1.1//EN" "http://www.w3.org/Graphics/SVG/1.1/DTD/svg11.dtd">
<svg width="100%" height="100%" viewBox="0 0 800 800" version="1.1" xmlns="http://www.w3.org/2000/svg" xmlns:xlink="http://www.w3.org/1999/xlink" xml:space="preserve" xmlns:serif="http://www.serif.com/" style="fill-rule:evenodd;clip-rule:evenodd;stroke-linejoin:round;stroke-miterlimit:2;">
    <g transform="matrix(1.75824,0,0,1.75824,0,0)">
        <path d="M263.356,286.243C259.213,286.243 255.856,289.601 255.856,293.743L255.856,369.315L66.644,369.315L66.644,180.095L124.384,180.095C128.527,180.095 131.884,176.737 131.884,172.595C131.884,168.453 128.527,165.095 124.384,165.095L66.644,165.095L66.644,133.327C66.644,120.139 77.373,109.41 90.562,109.41L101.361,109.41C105.504,109.41 108.861,106.052 108.861,101.91C108.861,97.768 105.504,94.41 101.361,94.41L90.562,94.41C69.103,94.41 51.644,111.868 51.644,133.327L51.644,416.082C51.644,437.541 69.103,454.999 90.562,454.999L231.939,454.999C253.398,454.999 270.857,437.541 270.857,416.082L270.857,293.743C270.856,289.601 267.499,286.243 263.356,286.243ZM231.938,440L90.562,440C77.374,440 66.644,429.271 66.644,416.083L66.644,384.315L255.857,384.315L255.857,416.083C255.856,429.271 245.127,440 231.938,440Z" style="fill:white;fill-rule:nonzero;stroke:white;stroke-width:0.57px;"/>
        <path d="M195.566,105.324C184.66,103.54 184.2,102.474 184.2,100.235C184.2,96.276 190.845,95.23 194.358,95.23C200.003,95.23 203.644,97.132 204.325,99.011C205.736,102.905 210.037,104.92 213.931,103.507C217.826,102.096 219.839,97.795 218.428,93.901C215.372,85.468 206.149,80.23 194.358,80.23C179.545,80.23 169.2,88.456 169.2,100.235C169.2,116.211 184.189,118.663 193.144,120.128C204.057,121.913 204.517,122.981 204.517,125.226C204.517,129.185 197.871,130.231 194.358,130.231C188.713,130.231 185.071,128.328 184.391,126.448C182.982,122.552 178.679,120.54 174.787,121.947C170.892,123.356 168.877,127.656 170.286,131.551C173.339,139.989 182.562,145.231 194.358,145.231C209.171,145.231 219.517,137.005 219.517,125.226C219.518,109.242 204.524,106.789 195.566,105.324Z" style="fill:white;fill-rule:nonzero;stroke:white;stroke-width:0.57px;"/>
        <path d="M333.562,105.324C322.656,103.54 322.196,102.474 322.196,100.235C322.196,96.276 328.841,95.23 332.354,95.23C337.998,95.23 341.64,97.133 342.322,99.012C343.733,102.906 348.033,104.922 351.928,103.507C355.823,102.095 357.835,97.794 356.423,93.9C353.366,85.468 344.144,80.23 332.354,80.23C317.541,80.23 307.196,88.456 307.196,100.235C307.196,116.211 322.185,118.663 331.14,120.128C342.053,121.913 342.513,122.981 342.513,125.226C342.513,129.185 335.867,130.231 332.354,130.231C326.708,130.231 323.066,128.327 322.385,126.447C320.976,122.553 316.678,120.535 312.781,121.947C308.886,123.357 306.872,127.657 308.282,131.552C311.336,139.99 320.559,145.231 332.354,145.231C347.167,145.231 357.513,137.005 357.513,125.226C357.513,109.242 342.52,106.789 333.562,105.324Z" style="fill:white;fill-rule:nonzero;stroke:white;stroke-width:0.57px;"/>
        <path d="M287.29,80.693C284.341,79.606 281.03,80.472 278.991,82.86L263.356,101.177L247.721,82.86C245.682,80.471 242.368,79.605 239.422,80.693C236.475,81.779 234.517,84.588 234.517,87.73L234.517,137.73C234.517,141.872 237.874,145.23 242.017,145.23C246.16,145.23 249.517,141.872 249.517,137.73L249.517,108.069L257.652,117.599C259.077,119.268 261.161,120.23 263.356,120.23C265.551,120.23 267.635,119.269 269.06,117.599L277.195,108.069L277.195,137.73C277.195,141.872 280.552,145.23 284.695,145.23C288.838,145.23 292.195,141.872 292.195,137.73L292.195,87.73C292.195,84.588 290.237,81.78 287.29,80.693Z" style="fill:white;fill-rule:nonzero;stroke:white;stroke-width:0.57px;"/>
        <path d="M361.711,32.448C335.363,11.523 300.434,0 263.355,0C226.276,0 191.345,11.524 164.999,32.448C138.145,53.776 123.356,82.287 123.356,112.73C123.356,166.167 169.323,211.739 233.505,222.895C234.673,239.555 228.647,256.093 216.866,267.986C214.735,270.137 214.107,273.357 215.272,276.151C216.437,278.944 219.167,280.764 222.194,280.764C256.492,280.764 285.945,256.28 292.888,222.949C357.239,211.888 403.355,166.257 403.355,112.73C403.356,82.288 388.566,53.776 361.711,32.448ZM285.178,208.966C281.272,209.506 278.45,212.976 278.721,216.91C278.723,216.945 278.726,216.979 278.729,217.014C275.277,239.093 259.514,256.753 239.141,263.164C246.965,249.305 250.18,233.04 247.961,216.951C247.962,216.936 247.963,216.922 247.964,216.908C248.235,212.975 245.413,209.504 241.508,208.964C181.738,200.703 138.357,160.231 138.357,112.731C138.357,58.842 194.431,15.001 263.356,15.001C332.282,15.001 388.357,58.842 388.357,112.731C388.356,160.239 344.964,200.713 285.178,208.966Z" style="fill:white;fill-rule:nonzero;stroke:white;stroke-width:0.57px;"/>
    </g>
</svg>
