<?xml version="1.0" encoding="UTF-8" standalone="no"?>
<!DOCTYPE svg PUBLIC "-//W3C//DTD SVG 1.1//EN" "http://www.w3.org/Graphics/SVG/1.1/DTD/svg11.dtd">
<svg width="100%" height="100%" viewBox="0 0 319 255" version="1.1" xmlns="http://www.w3.org/2000/svg" xmlns:xlink="http://www.w3.org/1999/xlink" xml:space="preserve" xmlns:serif="http://www.serif.com/" style="fill-rule:evenodd;clip-rule:evenodd;stroke-linejoin:round;stroke-miterlimit:2;">
    <g transform="matrix(0.1,0,0,-0.1,-675,880)">
        <g>
            <path d="M8112,8689C7679,8598 7337,8254 7244,7816C7196,7592 7226,7331 7324,7116C7400,6950 7565,6755 7718,6651C7932,6506 8205,6435 8453,6460C8935,6509 9321,6837 9447,7307C9471,7396 9474,7422 9474,7590C9474,7761 9472,7783 9446,7875C9328,8305 8987,8621 8561,8695C8441,8716 8228,8713 8112,8689ZM8441,8561C8685,8535 8900,8432 9057,8267C9145,8175 9179,8124 9235,8008C9308,7857 9323,7783 9323,7590C9323,7453 9320,7412 9302,7348C9207,7003 8969,6749 8645,6647C8184,6502 7683,6718 7470,7155C7403,7291 7378,7394 7373,7555C7367,7710 7387,7827 7443,7963C7573,8282 7882,8515 8235,8559C8331,8571 8343,8571 8441,8561Z" style="fill:white;fill-rule:nonzero;"/>
            <path d="M8750,8190C8711,8151 8723,8115 8805,8028C8910,7916 8980,7768 8980,7654C8980,7571 9057,7528 9108,7583C9164,7643 9107,7880 8999,8036C8981,8063 8937,8113 8902,8147C8848,8199 8831,8210 8804,8210C8783,8210 8762,8202 8750,8190Z" style="fill:white;fill-rule:nonzero;"/>
            <path d="M8265,8030C8161,8008 8085,7965 8013,7887C7885,7748 7864,7527 7963,7358C7997,7299 8085,7218 8150,7185C8218,7151 8329,7127 8389,7135C8607,7165 8757,7308 8790,7518C8838,7814 8555,8089 8265,8030ZM8477,7854C8657,7768 8702,7533 8567,7383C8493,7301 8361,7268 8252,7304C8146,7340 8062,7449 8053,7565C8047,7640 8061,7694 8103,7756C8185,7879 8340,7920 8477,7854Z" style="fill:white;fill-rule:nonzero;"/>
            <path d="M8295,7645C8233,7583 8297,7483 8380,7511C8462,7540 8437,7670 8350,7670C8331,7670 8310,7661 8295,7645Z" style="fill:white;fill-rule:nonzero;"/>
        </g>
    </g>
</svg>
