<?xml version="1.0" encoding="UTF-8" standalone="no"?>
<!DOCTYPE svg PUBLIC "-//W3C//DTD SVG 1.1//EN" "http://www.w3.org/Graphics/SVG/1.1/DTD/svg11.dtd">
<svg width="100%" height="100%" viewBox="0 0 352 353" version="1.1" xmlns="http://www.w3.org/2000/svg" xmlns:xlink="http://www.w3.org/1999/xlink" xml:space="preserve" xmlns:serif="http://www.serif.com/" style="fill-rule:evenodd;clip-rule:evenodd;stroke-linejoin:round;stroke-miterlimit:2;">
    <g transform="matrix(1,0,0,1,-535,-121)">
        <g transform="matrix(0.1,0,0,-0.1,0,1024)">
            <path d="M7491,8701C7453,8691 7424,8646 7436,8614C7451,8569 7487,8552 7585,8540C7691,8527 7750,8510 7845,8462C7927,8421 7967,8393 8033,8331C8157,8214 8245,8052 8285,7870C8312,7749 8336,7710 8381,7710C8446,7710 8465,7759 8445,7876C8425,7986 8399,8062 8339,8187C8273,8322 8163,8441 8012,8540C7886,8624 7789,8662 7650,8685C7592,8694 7538,8703 7530,8705C7522,8706 7504,8705 7491,8701Z" style="fill:white;fill-rule:nonzero;"/>
            <path d="M6278,8543C6250,8525 6149,8379 6107,8295C6072,8223 6033,8103 6008,7986C5977,7839 5977,7586 6008,7442C6058,7213 6138,7030 6254,6884L6315,6806L6273,6767C6207,6706 6187,6650 6146,6420C6126,6307 6110,6212 6110,6207C6110,6203 6067,6200 6015,6200C5963,6200 5910,6195 5896,6189C5862,6173 5846,6126 5863,6092C5887,6040 5879,6040 6546,6040C7160,6040 7168,6040 7194,6061C7214,6077 7220,6090 7220,6120C7220,6150 7214,6163 7194,6179C7171,6197 7153,6200 7060,6200C6953,6200 6953,6200 6940,6228C6925,6260 6880,6403 6883,6407C6885,6408 6926,6396 6975,6379C7284,6276 7662,6293 7945,6424C8042,6469 8172,6554 8209,6596C8251,6643 8257,6674 8234,6720C8223,6741 8045,6924 7813,7151L7410,7545L7443,7578C7485,7622 7509,7635 7523,7621C7542,7602 7595,7608 7616,7631C7631,7648 7635,7667 7635,7729C7635,7846 7594,7890 7486,7890C7389,7890 7344,7849 7375,7790C7384,7773 7396,7760 7402,7760C7409,7760 7392,7738 7365,7710C7338,7683 7312,7660 7308,7660C7300,7660 7119,7837 6559,8387C6391,8552 6382,8560 6344,8560C6323,8560 6293,8552 6278,8543ZM6870,7845C7098,7619 7458,7264 7669,7056L8053,6677L8025,6654C7970,6610 7804,6531 7725,6511C7437,6439 7116,6477 6835,6618C6713,6678 6642,6729 6547,6819C6277,7077 6150,7364 6150,7715C6150,7914 6188,8075 6282,8268L6332,8372L6394,8314C6427,8281 6642,8071 6870,7845ZM6632,6536C6686,6498 6702,6481 6709,6452C6715,6432 6731,6372 6745,6320C6759,6268 6770,6222 6770,6218C6770,6213 6660,6210 6525,6210C6310,6210 6280,6212 6280,6226C6280,6244 6338,6576 6346,6603C6349,6612 6372,6636 6397,6655L6442,6690L6504,6636C6537,6607 6595,6562 6632,6536Z" style="fill:white;fill-rule:nonzero;"/>
            <path d="M7491,8311C7460,8280 7465,8220 7500,8204C7514,8197 7563,8174 7610,8152C7759,8084 7845,7986 7914,7806C7945,7726 7955,7710 7981,7700C8008,7689 8015,7690 8038,7707C8072,7732 8077,7774 8056,7864C8037,7943 8013,7993 7953,8078C7832,8249 7564,8384 7491,8311Z" style="fill:white;fill-rule:nonzero;"/>
        </g>
    </g>
</svg>
