<?xml version="1.0" encoding="UTF-8" standalone="no"?>
<!DOCTYPE svg PUBLIC "-//W3C//DTD SVG 1.1//EN" "http://www.w3.org/Graphics/SVG/1.1/DTD/svg11.dtd">
<svg width="100%" height="100%" viewBox="0 0 372 340" version="1.1" xmlns="http://www.w3.org/2000/svg" xmlns:xlink="http://www.w3.org/1999/xlink" xml:space="preserve" xmlns:serif="http://www.serif.com/" style="fill-rule:evenodd;clip-rule:evenodd;stroke-linejoin:round;stroke-miterlimit:2;">
    <g transform="matrix(1,0,0,1,-535,-537)">
        <g transform="matrix(0.1,0,0,-0.1,0,1024)">
            <path d="M7061,4560C7020,4550 6943,4520 6891,4494C6810,4453 6780,4431 6700,4350C6648,4298 6590,4229 6571,4197C6496,4069 6452,3888 6465,3756C6497,3432 6672,3209 6997,3078C7066,3050 7089,3046 7201,3042C7351,3037 7439,3052 7549,3105C7723,3189 7843,3306 7928,3475C8040,3700 8028,3992 7899,4205C7820,4336 7671,4466 7535,4523C7398,4580 7204,4595 7061,4560ZM7411,4387C7506,4354 7583,4304 7659,4225C7775,4103 7820,4000 7827,3840C7835,3675 7805,3577 7706,3443C7599,3297 7410,3201 7230,3200C7023,3200 6800,3343 6702,3538C6626,3691 6616,3800 6662,3973C6708,4148 6873,4321 7055,4385C7152,4419 7314,4420 7411,4387Z" style="fill-rule:nonzero;"/>
            <path d="M6755,2984C6679,2972 6558,2934 6482,2899C6371,2848 6292,2790 6195,2689C6008,2494 5927,2302 5925,2055C5925,1960 5928,1939 5947,1904C5976,1850 6030,1803 6079,1790C6106,1783 6481,1781 7262,1782C8331,1785 8407,1786 8437,1803C8483,1827 8518,1868 8537,1918C8565,1993 8541,2232 8489,2379C8442,2514 8302,2692 8158,2800C7963,2947 7785,3000 7537,2985C7379,2975 7164,2974 6945,2982C6857,2986 6772,2986 6755,2984ZM7065,2813C7225,2799 7259,2798 7375,2811C7619,2837 7758,2823 7907,2755C8092,2670 8219,2541 8315,2339C8362,2237 8380,2159 8380,2043C8380,1993 8376,1967 8365,1957C8352,1944 8209,1943 7233,1947C6618,1950 6111,1956 6106,1961C6100,1966 6093,2002 6089,2041C6070,2219 6192,2478 6361,2621C6501,2738 6592,2783 6750,2815C6838,2833 6857,2833 7065,2813Z" style="fill-rule:nonzero;"/>
        </g>
    </g>
</svg>
