<?xml version="1.0" encoding="UTF-8" standalone="no"?><!DOCTYPE svg PUBLIC "-//W3C//DTD SVG 1.1//EN" "http://www.w3.org/Graphics/SVG/1.1/DTD/svg11.dtd"><svg width="100%" height="100%" viewBox="0 0 405 374" version="1.1" xmlns="http://www.w3.org/2000/svg" xmlns:xlink="http://www.w3.org/1999/xlink" xml:space="preserve" xmlns:serif="http://www.serif.com/" style="fill-rule:evenodd;clip-rule:evenodd;stroke-linejoin:round;stroke-miterlimit:2;"><path d="M122.7,39.9c0.6,0.1 2.5,1.3 4.2,2.7c5.6,4.7 3.7,13 -3.4,15.4c-9.3,3.1 -16.3,-4.7 -12.3,-13.6c1.3,-2.8 6,-5.4 8.7,-4.9c0.9,0.2 2.1,0.4 2.8,0.4Zm92.8,-23.5c6.1,2.9 10.7,7.6 13.5,13.8c1.6,3.7 2,6.8 2.1,15.5c-0,5.9 -0.2,11.9 -0.5,13.3c-0.3,1.4 -0.7,4.3 -1.1,6.5c-0.3,2.2 -1.3,7.8 -2.2,12.5c-0.9,4.7 -1.6,13.1 -1.7,18.8l-0.1,10.4l3.3,2.9c6.8,6.1 15.4,2.5 35.3,-14.7c16.9,-14.7 22.2,-18.8 28.4,-21.5c14.9,-6.6 29.8,2.3 29.8,17.8c-0,10.9 -7.8,20.7 -30.8,38.6c-13.9,10.8 -19,17.5 -18.1,23.6c1.2,7.7 5.4,9.2 35.4,12.7c16.4,1.9 26.6,4.4 34.5,8.6c12,6.5 19.4,18.9 16.8,28.6c-2.5,9.3 -10,16.7 -19.6,19.3c-6,1.7 -24.2,0.5 -38.2,-2.5c-24.5,-5.2 -34.3,-2.5 -34.3,9.4c0,6.6 4.3,13.1 19.6,29.9c20.1,22.1 22.9,27.2 22.2,40.6c-1.4,27.1 -32.1,36.8 -54.4,17.2c-2.9,-2.5 -8.8,-10.4 -14.9,-19.7c-15.4,-23.4 -22.5,-29.5 -31.6,-27c-1.9,0.5 -4.7,2.2 -6.1,3.7c-3.6,3.9 -9.1,14.1 -13.2,24.9c-8.4,22.1 -15.2,30.9 -27.9,36.3c-4.9,2 -7.8,2.5 -13.7,2.5c-12.1,-0.1 -20.7,-5 -26.8,-15.4c-2.5,-4.2 -2.7,-5.3 -2.7,-15.5l0.1,-11l5.8,-14c8.8,-21.4 11.4,-33.2 8.6,-38.6c-1.8,-3.3 -8.5,-2.5 -23.4,3.1c-19.2,7.1 -27.3,9 -38,9c-11,0 -15,-1 -21.3,-5.4c-6.1,-4.2 -10.7,-12.7 -10.7,-20.1c-0.1,-9 2.1,-14.3 8.8,-21.1c7.3,-7.2 15.6,-11.5 33.1,-16.9c31.2,-9.5 36.5,-12.7 36.5,-21.6c0,-3.8 -2,-7.6 -5.7,-11c-3.1,-3 -18.8,-12.5 -30.3,-18.5c-15.3,-8 -23.6,-20 -22.8,-32.9c1,-15.5 12.7,-26 28.8,-26c6.6,0 8.5,0.5 15.1,3.7c8.9,4.2 15.7,8.4 28.9,17.8c17.5,12.5 25.4,14.9 31.9,9.4c5.4,-4.5 5.5,-5 5.6,-32.4c0,-21.5 0.3,-26.5 1.8,-31.9c4.8,-17 15.4,-31 25.6,-34.1c5.4,-1.7 13.4,-1.1 18.6,1.4Zm-18.9,8.8c-5.1,2.9 -11.6,12.6 -14.5,21.4c-3.2,9.9 -4.2,19.6 -4,41.4c0.2,17.7 0,19.9 -1.8,24c-6.6,14.7 -23.8,17.1 -40.5,5.6c-3.5,-2.3 -11.4,-7.7 -17.6,-12c-15.4,-10.6 -23,-14.1 -30.9,-14.1c-5.2,0 -6.8,0.4 -10.5,3c-4.9,3.4 -8.7,10.1 -8.8,15.4c-0.1,8.8 8.5,18.3 24.6,27c14.4,7.8 25.8,15.5 28.8,19.3c6,7.9 7.2,16.3 3.4,23.8c-4.3,8.4 -13.3,13.2 -39.8,21.1c-26,7.7 -36,15.9 -36,29.2c0,4.3 0.5,6.1 2.7,8.9c4.4,5.7 7.7,7.2 17.3,7.6c10.1,0.4 20.7,-2 39.8,-9.2c17.3,-6.5 24.2,-6.2 30.5,1.4c1.4,1.6 3,5.4 3.6,8.2c1.5,6.9 -0.5,14.8 -9,36.4c-8.7,22.1 -9.1,30.6 -1.6,39c3.7,4.3 6.9,6 12.9,6.9c7.2,1.1 14.9,-1.6 21,-7.3c6.2,-5.8 8.4,-9.5 15.1,-25.7c9.9,-24.3 16.1,-32.1 27,-34.5c13,-2.8 23,5 40.2,31.4c13,20 18.5,24.5 30.3,25.3c5.6,0.4 7.4,0.1 11.2,-1.9c10.1,-5.2 13.7,-17.1 8.6,-28.3c-3.2,-6.9 -3.6,-7.5 -18,-22.9c-14,-14.8 -17.2,-19 -19.7,-25.6c-3.6,-9.6 -2,-18.3 4.7,-24.7c2.6,-2.6 6,-4.7 8.6,-5.4c5.6,-1.5 19.2,-0.6 32.8,2.1c5.8,1.2 14.8,2.4 20,2.6c9,0.5 9.8,0.4 15,-2.3c4.4,-2.2 6,-3.7 7.8,-7.5c2,-4 2.2,-5.2 1.3,-8.5c-0.6,-2.2 -2.7,-5.4 -4.8,-7.5c-7.7,-7.3 -16.9,-10.3 -39.3,-12.9c-18.6,-2.1 -28.3,-4 -33,-6.4c-10.8,-5.6 -12,-23.1 -2.4,-34.4c2,-2.3 7.9,-7.4 13.2,-11.3c13.5,-9.9 24.6,-20.9 27.1,-26.7c3.8,-8.9 -0.6,-16.1 -10,-16.1c-6,0 -12.5,4.2 -28.8,18.5c-6.2,5.5 -13.9,11.9 -17,14.2c-6.1,4.7 -15.4,8.3 -21.1,8.3c-5.2,0 -12,-3.8 -15.4,-8.8c-2.6,-3.7 -3,-5.3 -3.4,-13c-0.4,-7.5 1,-20.6 3.4,-32.6c3.3,-16.4 3.6,-28.6 0.9,-34c-4.7,-9.4 -15.6,-13.2 -23.9,-8.4Zm-103.9,271.9c1.5,1.4 1.7,6.2 0.3,9c-0.6,1 -2.3,2.5 -3.8,3.3c-3.9,2 -7.2,0.2 -9.1,-4.8c-1.5,-3.9 -1.5,-3.9 1.8,-6.8c2.7,-2.4 3.9,-2.9 6.4,-2.4c1.6,0.3 3.6,1.1 4.4,1.7Z" style="fill:#ebebeb;"/></svg>