<svg xml:space="preserve" fill="#ebebeb" style="fill-rule:evenodd;clip-rule:evenodd;stroke-linejoin:round;stroke-miterlimit:2" viewBox="0 0 390 375" xmlns="http://www.w3.org/2000/svg"><path d="M364.5 23.7c3.2 1.7 4.5 3.3 6.5 8l2.4 5.8.7 151c.7 146.1.6 151.1-1.2 154.7-2.3 4.5-7.9 9.2-12.8 10.6-2.7.8-48.8 1.2-165 1.2l-161.3.1-4.3-2.6c-2.4-1.4-5.3-3.7-6.4-5.1-5.1-6.4-4.9-1.4-4.5-160 .2-81.3.6-149.4 1-151.2.7-4.2 6.7-11 11.9-13.3 3.8-1.8 10.9-1.9 166.5-1.6l162.5.2zM35.4 30c-2.8 1.1-8.4 7.7-8.4 9.8 0 .9-.1 67.6-.2 148.2l-.2 146.5 2.2 4.5c4.2 8.8-12.4 8 167.9 8 156.6 0 159.9 0 163-2 6.9-4.2 6.4 9.1 6.1-155.6-.3-146.6-.3-149-2.3-152.9-4.1-8.2 10.8-7.5-167.5-7.4-87.2 0-159.4.4-160.6.9M84 318.5c1 1.2 1 2.1.2 4L83 325H45l-.6-2.5c-1.3-5.4-1-5.5 19.4-5.5 15.8 0 19.2.3 20.2 1.5M332.2 42.7c1.4 1.3 1.8 3.1 1.8 9.3v7.7l4.9 3.1c5.8 3.5 10.6 9.8 12.2 15.5 3 11.3-5.2 26.2-16.5 30.1l-3.7 1.3-.3 50.4c-.2 51.5-.7 59.4-4.3 66.3-.9 1.7-9 10.7-18.1 20.1-9 9.3-16.9 18-17.4 19.2-.8 1.7-.6 2.7 1.1 4.9 3.4 4.3 2.7 7.6-2.8 14.1-2.6 3.2-7.8 8.7-11.5 12.2-6.4 6.1-6.8 6.3-10.8 5.8-2.2-.3-6-1.9-8.4-3.7l-4.4-3.1-8.4 5.6C227.7 313.4 203.9 320 179 320c-22 0-41.3-4.6-61.1-14.6-38.8-19.4-63.5-51.3-72.6-93.7-1.4-6.3-1.8-12.7-1.8-27.2.1-17.2.3-20 2.8-29.9 6.2-24.7 16.5-43.8 33.1-61.2 27.4-28.9 60.5-43.4 98.9-43.5 36.3 0 69.5 13.9 95.8 40.1 19.6 19.5 31.9 42.4 36.6 68.1 2.5 14.2 2.3 36.5-.6 49.8-1.8 8.6-6.3 23.2-9.6 31.6-1 2.5 15.3-12.8 17.9-16.8 1.8-2.7 2-5.6 2.5-31.1.3-15.4.5-40.4.3-55.3l-.3-27.3-4.2-2.1c-12.1-6.1-17.7-17.5-14.3-29 2.7-9.2 9.6-15.6 18.7-17.3 4.4-.8 5.2-2.9 4.3-10.9-.5-4.2-.3-5.7 1.1-7 2.1-2.1 3.4-2.1 5.7 0M319 70.2c-5.5 2.8-9 8.4-9 14.6 0 13.6 15.8 21.4 26.4 13.1 6.4-5.1 8.5-15.7 4.3-22-2.6-3.9-9.7-7.9-14.2-7.9-1.7 0-5.1 1-7.5 2.2m-47.8 207.1c-5.6 5.6-10.2 11-10.2 11.9 0 2.1 3.7 4.8 6.5 4.8 2 0 13-11.2 16.9-17.2 1.7-2.7 1.7-2.9-.4-6.3-1.2-1.9-2.2-3.5-2.3-3.5-.2 0-4.8 4.6-10.5 10.3M158 59.9C130.3 65 108.7 76.3 88.9 96c-21.6 21.3-33.3 45.9-37 77.1C45.4 229 79 282 134.5 303.3c24.9 9.6 51.1 10.8 79 3.7 17.6-4.5 35.8-15.1 42.1-24.6 1.9-2.9 6.5-7.8 10.1-11 21.7-19.1 32.4-38.7 36.8-67.4 2.7-17.7 1.8-38.2-2.6-55.8-10.6-42.7-47.4-76.5-94.9-87.3-13-3-33.8-3.4-47-1m36.5 88.1c8.1 3.1 17.3 12.3 21.8 21.7 2.9 6.1 3.2 7.7 3.2 15.8 0 11.7-2.8 18-11.9 27.1-10.2 10.2-23.7 15.1-35.2 12.6-10.5-2.2-25.3-13.7-30.2-23.4-9.4-19-1.4-41 18.9-51.8 3.4-1.8 7.3-3.6 8.8-4.1 4.7-1.5 18.1-.4 24.6 2.1m-24.8 6.4c-14 3.8-23.7 18-22.5 33 1 12.1 7.5 21.2 19.1 26.7 10.6 5 24.3 3.6 30.2-3.1 1.1-1.2 3.8-3.5 6.1-5.1 8.6-5.9 11.7-22 6.5-33.6-4.1-9.2-13.4-16.2-24.6-18.2-7.2-1.3-8.7-1.3-14.8.3m12.8 28.1c2.8 2.7 3 3.7 1.5 6.6-2.3 4.1-10 .7-10-4.4 0-5 4.6-6.2 8.5-2.2" style="fill:#ebebeb"/></svg>