<?xml version="1.0" encoding="UTF-8" standalone="no"?>
<!DOCTYPE svg PUBLIC "-//W3C//DTD SVG 1.1//EN" "http://www.w3.org/Graphics/SVG/1.1/DTD/svg11.dtd">
<svg width="100%" height="100%" viewBox="0 0 20 20" version="1.1" xmlns="http://www.w3.org/2000/svg" xmlns:xlink="http://www.w3.org/1999/xlink" xml:space="preserve" xmlns:serif="http://www.serif.com/" style="fill-rule:evenodd;clip-rule:evenodd;stroke-linejoin:round;stroke-miterlimit:2;">
    <path d="M18.16,5.87C18.5,7.179 18.5,9.95 18.5,9.95C18.5,9.95 18.5,12.721 18.16,14.03C17.968,14.78 17.38,15.368 16.63,15.56C15.321,15.9 10,15.9 10,15.9C10,15.9 4.679,15.9 3.37,15.56C2.62,15.368 2.032,14.78 1.84,14.03C1.5,12.721 1.5,9.95 1.5,9.95C1.5,9.95 1.5,7.179 1.84,5.87C2.042,5.125 2.625,4.542 3.37,4.34C4.679,4 10,4 10,4C10,4 15.321,4 16.63,4.34C17.375,4.542 17.958,5.125 18.16,5.87ZM8.3,12.5L12.72,9.95L8.3,7.4L8.3,12.5Z" style="fill:white;fill-rule:nonzero;"/>
</svg>
