<?xml version="1.0" encoding="UTF-8" standalone="no"?>
<!DOCTYPE svg PUBLIC "-//W3C//DTD SVG 1.1//EN" "http://www.w3.org/Graphics/SVG/1.1/DTD/svg11.dtd">
<svg width="100%" height="100%" viewBox="0 0 354 314" version="1.1" xmlns="http://www.w3.org/2000/svg" xmlns:xlink="http://www.w3.org/1999/xlink" xml:space="preserve" xmlns:serif="http://www.serif.com/" style="fill-rule:evenodd;clip-rule:evenodd;stroke-linejoin:round;stroke-miterlimit:2;">
    <g transform="matrix(1,0,0,1,-534,-132)">
        <g transform="matrix(0.1,0,0,-0.1,0,1024)">
            <g>
                <path d="M7144,8665C7084,8640 6981,8499 6916,8353L6898,8312L6852,8341C6799,8375 6679,8422 6602,8440C6553,8451 6546,8451 6522,8433C6455,8383 6432,8145 6476,7960C6498,7871 6560,7744 6610,7687C6634,7661 6651,7638 6649,7637C6647,7635 6609,7624 6565,7611C6397,7564 6264,7475 6216,7378C6170,7286 6186,7153 6252,7083C6264,7070 6272,7059 6269,7058C6267,7056 6221,7033 6167,7006C5976,6909 5876,6782 5876,6635C5876,6574 5881,6553 5908,6497C6006,6299 6317,6145 6760,6075C6923,6049 7328,6043 7510,6064C7853,6104 8117,6191 8293,6324C8509,6486 8539,6708 8368,6879C8311,6936 8201,7009 8130,7036C8105,7045 8084,7054 8082,7056C8080,7057 8092,7077 8110,7101C8150,7157 8174,7238 8165,7293C8149,7387 8071,7484 7962,7543C7906,7574 7748,7630 7718,7630C7692,7630 7695,7636 7741,7688C7883,7850 7941,8179 7864,8386C7842,8447 7814,8455 7719,8431C7638,8410 7527,8364 7481,8331L7452,8310L7406,8404C7361,8493 7286,8605 7244,8642C7211,8671 7177,8679 7144,8665ZM7204,8478C7239,8431 7306,8302 7320,8254C7332,8214 7332,8213 7282,8144C7254,8106 7219,8049 7203,8018L7174,7961L7143,8023C7126,8058 7089,8114 7062,8149L7011,8212L7034,8274C7065,8355 7155,8510 7172,8510C7176,8510 7190,8495 7204,8478ZM6721,8253C6797,8216 6831,8190 6895,8126C7017,8003 7077,7869 7098,7671L7106,7588L7053,7594C6928,7609 6790,7683 6717,7775C6620,7897 6573,8083 6596,8254C6600,8281 6608,8300 6615,8300C6622,8300 6670,8279 6721,8253ZM7754,8263C7784,8081 7718,7855 7601,7740C7515,7655 7371,7591 7266,7590L7238,7590L7244,7658C7268,7890 7377,8089 7542,8202C7601,8242 7714,8299 7736,8300C7742,8300 7750,8283 7754,8263ZM6915,7484C7000,7458 7016,7456 7180,7456C7345,7456 7360,7458 7440,7485C7542,7518 7584,7519 7714,7486C7839,7454 7907,7422 7964,7370C8043,7297 8044,7224 7966,7152C7856,7051 7650,6991 7332,6970C6966,6944 6572,7015 6408,7135C6269,7237 6314,7362 6520,7446C6583,7471 6788,7521 6810,7516C6818,7514 6866,7500 6915,7484ZM6491,6929C6659,6863 6890,6830 7180,6830C7473,6830 7657,6856 7860,6927C7936,6954 7936,6954 7990,6936C8143,6887 8263,6808 8310,6727C8347,6663 8348,6620 8314,6552C8279,6481 8205,6419 8085,6360C7936,6287 7803,6248 7579,6213C7435,6191 6969,6188 6820,6208C6593,6240 6393,6297 6245,6373C6140,6427 6039,6525 6021,6591C5985,6720 6102,6842 6340,6927C6420,6955 6427,6955 6491,6929Z" style="fill:white;fill-rule:nonzero;"/>
            </g>
        </g>
    </g>
</svg>
